<svg width="1440" height="1076" viewBox="0 0 1440 1076" fill="none" xmlns="http://www.w3.org/2000/svg">
<path d="M1696.34 940.473C1696.34 983.485 1696.34 1026.21 1696.34 1069.22C1696.34 1074.1 1695.62 1074.96 1691.55 1074.96C1411.04 1074.67 1130.54 1074.96 850.042 1074.96C845.723 1068.36 839.484 1066.07 833.486 1063.49C833.246 1062.91 833.246 1061.77 832.766 1061.48C813.81 1048.86 794.614 1036.25 775.658 1023.63C743.025 1002.12 710.392 980.618 677.758 959.112C645.365 937.606 612.972 916.1 580.579 894.594C546.506 871.94 512.433 849.001 478.36 826.634C471.402 822.046 464.923 816.025 457.005 814.017C457.005 811.15 454.605 810.863 453.406 810.003C416.933 785.629 380.461 761.543 343.989 737.456C304.157 711.075 264.565 684.981 224.734 658.6C192.34 637.094 159.947 615.588 127.554 594.082C100.2 576.017 73.0855 557.665 45.7312 539.887C31.0943 530.137 16.6973 519.814 1.58049 511.212C1.58049 510.065 1.34054 508.918 1.34054 507.771C1.34054 341.457 1.34054 174.857 1.10059 8.54344C1.10059 2.23499 3.26013 1.94824 7.33927 1.94824C74.7651 1.94824 142.431 1.94824 209.857 1.94824C233.852 1.94824 257.847 1.94824 281.842 2.23499C285.681 7.68319 291.44 9.97717 296.479 13.1314C334.63 38.6519 373.022 63.8857 411.174 89.1195C445.007 111.486 478.6 134.139 512.433 156.505C546.986 179.445 581.779 202.385 616.331 225.325C650.644 247.978 684.957 270.918 719.27 293.857C751.663 315.363 784.056 336.869 816.449 358.376C844.283 376.727 871.878 395.653 899.952 413.718C905.231 417.159 910.27 422.32 916.748 423.181C916.748 424.614 917.468 425.188 918.428 425.761C941.223 440.959 963.778 456.156 986.574 471.067C1017.77 491.713 1048.96 512.359 1080.15 533.005C1113.51 555.084 1146.86 577.451 1180.45 599.817C1211.89 620.75 1243.08 641.682 1274.75 662.041C1281.71 666.629 1287.95 672.938 1295.87 674.945C1299.95 680.106 1305.47 682.687 1310.51 685.841C1350.34 712.509 1390.41 738.603 1430.24 765.27C1469.35 791.078 1508.22 817.172 1547.34 843.266C1584.29 867.639 1621 892.013 1657.95 916.1C1670.67 924.129 1683.15 933.591 1696.34 940.473Z" fill="#23A497"/>
<path d="M1295.87 674.369C1287.71 672.362 1281.71 666.054 1274.75 661.466C1243.32 641.107 1211.89 620.174 1180.45 599.242C1147.1 577.162 1113.75 554.796 1080.15 532.429C1048.96 511.783 1017.77 491.138 986.572 470.492C963.777 455.294 941.222 440.097 918.427 425.186C917.467 424.612 916.747 424.039 916.747 422.605C922.506 419.451 927.545 414.863 932.824 410.275C946.021 399.092 959.218 387.622 972.415 376.152C983.693 366.402 995.211 357.227 1006.73 347.764C1022.56 334.287 1038.4 320.81 1054.24 307.332C1065.52 297.87 1077.03 288.407 1088.31 278.658C1101.75 267.188 1114.95 255.718 1128.38 244.248C1145.18 229.911 1162.22 215.86 1179.01 201.523C1194.85 188.045 1210.69 174.568 1226.52 161.091C1237.8 151.628 1249.32 142.166 1260.59 132.416C1273.79 121.233 1286.99 109.477 1300.19 98.2934C1311.46 88.544 1322.98 79.368 1334.5 69.9054C1350.34 56.4282 1366.17 42.9511 1382.01 29.474C1393.05 20.0113 1403.84 10.8354 1414.88 1.37269C1417.28 1.37269 1419.68 1.08594 1422.08 1.08594C1513.26 1.08594 1604.44 1.08594 1695.62 1.08594C1695.62 112.631 1695.62 224.462 1695.62 336.007C1692.5 337.441 1689.62 339.735 1686.75 342.029C1674.03 352.925 1661.07 363.535 1648.11 374.431C1637.08 383.607 1626.04 392.783 1615 402.246C1601.8 413.429 1588.61 425.186 1575.41 436.369C1564.13 446.118 1552.61 455.294 1541.1 464.757C1525.26 478.234 1509.42 491.711 1493.59 505.188C1482.31 514.651 1470.79 524.114 1459.27 533.863C1445.84 545.333 1432.64 556.803 1419.2 568.273C1402.41 582.61 1385.37 596.661 1368.57 610.998C1352.74 624.475 1336.9 637.952 1321.06 651.43C1313.14 659.172 1304.51 666.914 1295.87 674.369Z" fill="#FF4811"/>
<path d="M1.57812 511.211C16.6949 519.813 31.0919 530.136 45.7288 539.886C73.0831 557.951 100.197 576.016 127.552 594.081C159.945 615.587 192.338 637.093 224.731 658.599C264.563 684.98 304.155 711.074 343.986 737.455C380.458 761.542 416.931 785.628 453.403 810.002C454.603 810.862 457.242 811.149 457.002 814.016C451.724 814.877 449.084 820.038 445.005 823.192C427.729 837.243 410.692 851.58 393.656 865.918C377.579 879.395 361.502 893.159 345.666 906.636C334.388 916.099 323.111 925.275 312.073 934.737C298.636 946.207 285.439 957.677 272.001 969.147C255.205 983.484 238.168 997.535 221.372 1011.59C205.535 1025.06 189.699 1038.54 173.862 1052.02C165.224 1059.47 156.586 1067.21 147.947 1074.67C99.2376 1074.67 50.5278 1074.67 1.81807 1074.67C1.81807 889.718 1.81807 705.052 1.81807 520.1C1.57812 517.519 1.57812 514.365 1.57812 511.211Z" fill="#F32D66"/>
<path d="M1295.87 674.37C1304.51 666.915 1313.14 659.173 1321.78 651.717C1337.62 638.24 1353.46 624.763 1369.29 611.286C1386.09 596.949 1403.12 582.898 1419.92 568.561C1433.36 557.091 1446.56 545.621 1459.99 534.151C1471.27 524.401 1482.79 515.225 1494.31 505.476C1510.14 491.999 1525.98 478.522 1541.82 465.045C1553.09 455.582 1564.61 446.119 1576.13 436.657C1589.33 425.473 1602.52 414.004 1615.72 402.534C1626.76 393.071 1637.8 383.895 1648.83 374.719C1661.79 363.823 1674.51 353.213 1687.46 342.317C1690.34 340.023 1692.98 337.729 1696.34 336.295C1696.34 537.592 1696.34 738.889 1696.34 940.185C1682.91 933.017 1670.67 923.841 1657.95 915.238C1621 890.865 1584.05 866.778 1547.33 842.404C1508.22 816.597 1469.35 790.503 1430.24 764.409C1390.41 738.028 1350.34 711.648 1310.5 684.98C1305.71 682.113 1299.95 679.819 1295.87 674.37Z" fill="#F32D66"/>
<path d="M147.708 1075.24C156.346 1067.78 164.984 1060.04 173.623 1052.59C189.459 1039.11 205.296 1025.63 221.133 1012.16C237.929 997.818 254.965 983.768 271.762 969.717C285.199 958.247 298.396 946.777 311.834 935.307C323.111 925.845 334.389 916.669 345.426 907.206C361.503 893.729 377.34 879.965 393.416 866.488C410.453 852.151 427.489 837.813 444.766 823.763C448.605 820.608 451.484 815.447 456.763 814.587C464.681 816.594 471.16 822.616 478.119 827.204C512.431 849.57 546.264 872.51 580.337 895.163C612.73 916.669 645.123 938.175 677.517 959.681C710.15 981.187 742.783 1002.69 775.416 1024.2C794.372 1036.82 813.568 1049.43 832.524 1062.05C833.004 1062.34 833.004 1063.2 833.244 1064.06C829.165 1067.78 825.086 1071.8 821.007 1075.53C596.894 1075.24 372.301 1075.24 147.708 1075.24Z" fill="#FF4811"/>
<path d="M1.58004 511.211C1.58004 514.366 1.34009 517.52 1.34009 520.387C1.34009 705.339 1.34009 890.005 1.34009 1074.96C0.860189 1074.67 0.14034 1075.82 0.14034 1074.38C0.14034 1072.38 0.14034 1070.66 0.14034 1068.65C0.14034 714.802 0.14034 360.956 -0.0996094 7.10894C-0.0996094 1.08724 1.10014 0.226999 5.89913 0.226999C567.621 0.513747 1129.34 0.226999 1690.82 0.513747C1692.5 0.513747 1694.9 -1.20674 1696.1 1.94748C1604.92 1.94748 1513.74 1.94748 1422.56 1.94748C1420.16 1.94748 1417.76 1.94748 1415.36 2.23423C1413.44 2.23423 1411.28 1.94748 1409.36 1.94748C1036.48 1.94748 663.601 1.94748 290.719 1.94748C287.84 1.94748 284.721 1.94748 281.841 2.23423C257.846 2.23423 233.851 1.94748 209.856 1.94748C142.43 1.94748 74.7647 1.94748 7.33883 1.94748C3.25968 1.94748 1.10014 2.23423 1.10014 8.54268C1.58004 174.856 1.58004 341.17 1.58004 507.77C1.58004 508.917 1.58004 510.064 1.58004 511.211Z" fill="#FEFEFE"/>
<path d="M821.489 1075.24C825.568 1071.51 829.647 1067.5 833.726 1063.77C839.725 1066.35 845.964 1068.93 850.283 1075.24C840.685 1075.24 831.087 1075.24 821.489 1075.24Z" fill="#D94568"/>
<path d="M282.08 1.94397C284.959 1.94397 288.079 1.65723 290.958 1.65723C663.84 1.65723 1036.72 1.65723 1409.6 1.65723C1411.52 1.65723 1413.68 1.65723 1415.6 1.94397C1404.56 11.4066 1393.77 20.8693 1382.73 30.0452C1366.89 43.5224 1351.06 56.9995 1335.22 70.4767C1323.94 79.9393 1312.42 89.402 1300.91 98.8647C1287.71 110.048 1274.51 121.518 1261.31 132.988C1250.04 142.737 1238.52 151.913 1227.24 161.662C1211.4 175.14 1195.57 188.617 1179.73 202.094C1162.93 216.431 1145.9 230.482 1129.1 244.819C1115.66 256.289 1102.47 267.759 1089.03 279.229C1077.75 288.978 1066.24 298.154 1054.96 307.904C1039.12 321.381 1023.28 334.858 1007.45 348.335C996.17 357.798 984.652 367.26 973.135 376.723C959.938 387.906 946.74 399.376 933.543 410.846C928.264 415.147 923.225 419.735 917.467 423.176C910.988 422.316 906.189 417.155 900.67 413.714C872.836 395.649 845.002 376.723 817.168 358.371C784.774 336.865 752.381 315.359 719.988 293.853C685.675 271.2 651.362 248.26 617.05 225.32C582.497 202.381 547.704 179.441 513.152 156.501C479.319 134.135 445.726 111.482 411.893 89.1153C373.741 63.8815 335.349 38.6477 297.197 13.1271C291.678 9.39941 286.159 7.39218 282.08 1.94397Z" fill="#F32D66"/>
</svg>
