<svg width="1502" height="2233" viewBox="0 0 1502 2233" fill="none" xmlns="http://www.w3.org/2000/svg">
<g clip-path="url(#clip0)">
<path d="M0 1379.86C1.86 1375.38 1.56 1370.51 2.32 1365.86C4.32 1353.35 8.99 1341.61 12.32 1329.48C14.53 1321.3 18.79 1313.89 21.79 1306.1C26.54 1293.81 36.41 1286.51 44.7 1277.51C50.9 1270.77 57.26 1264.21 63.7 1257.72C73.7 1247.72 84.7 1238.9 95.64 1229.99C116.64 1212.92 138.64 1197.32 160.15 1180.99C186.732 1160.84 214.709 1142.6 243.87 1126.41C264.11 1115.07 284.13 1103.33 303.47 1090.41C313.01 1084.06 323.71 1079.72 334.13 1074.91C350.67 1067.27 368.07 1061.68 384.31 1053.32C393.06 1048.81 401.04 1043.16 408.99 1037.45C410.86 1036.1 412.52 1034.45 414.85 1033.81C423.1 1030.74 430.98 1034.09 438.85 1035.52C468.8 1040.93 496.49 1052.68 523.67 1066C541.9 1074.93 560.15 1084 580.31 1088.08C595.31 1091.08 610.37 1094.08 625.65 1095.39C652.194 1097.56 678.843 1098.19 705.46 1097.28C729.54 1096.46 753.66 1095.86 777.68 1093.01C801.7 1090.16 826.08 1088.35 850.43 1089.55C866.31 1090.33 881.79 1093.55 897.11 1097.65C913.04 1101.89 928.93 1106.32 944.43 1111.97C952.43 1114.88 960.96 1113.78 969.09 1116.04C962.814 1111.65 956.01 1108.06 948.84 1105.37C923.678 1096.04 897.768 1088.88 871.39 1083.95C854.66 1080.76 837.59 1080.73 820.59 1081.54C794.82 1082.78 769.22 1086.1 743.45 1087.6C716.66 1089.15 689.9 1089.6 663.09 1089.06C639.22 1088.62 615.64 1085.94 592.09 1082.16C568.548 1078.32 545.723 1070.94 524.39 1060.27C506.947 1051.59 488.9 1044.18 470.39 1038.1C458.965 1034.42 447.141 1032.13 435.17 1031.27C431.348 1031.01 427.508 1031.22 423.74 1031.92C421.52 1032.31 419.22 1033.31 416.97 1031.92C417.04 1031.77 417.07 1031.55 417.18 1031.48C425.24 1026.4 424.67 1017.68 425.82 1009.95C426.62 1004.56 427.54 999.18 428.65 993.88C430.06 987.12 430.65 980.5 429.12 973.74C429.056 973.41 429.023 973.075 429.02 972.74C428.86 967.74 430.32 962.52 426.9 958C428.59 956.11 430.9 956.5 432.99 956.57C443.78 956.96 454.48 958.32 465.17 959.77C481.67 962.02 498.3 962.77 514.86 964.34C532.58 966.06 550.39 967.1 568.16 967.21C587.973 967.268 607.765 965.895 627.38 963.1C641.21 961.18 655.14 959.1 669.08 958.89C683.397 958.851 697.698 959.854 711.87 961.89C714.818 962.437 717.848 962.373 720.77 961.7C726.18 961.7 731.09 963.09 735.2 966.78C738.36 969.39 740.5 973.08 744.11 975.22C746.67 976.93 748.31 979.5 750.11 981.86C758.45 992.75 769.45 999.86 781.94 1005.16C798.56 1012.16 816.05 1016.36 833.28 1021.4C844.93 1024.81 856.39 1028.79 868.22 1031.69C877.22 1033.89 884.38 1040.13 891.32 1046.08C903.44 1056.46 914.32 1068.21 926.73 1078.31C934.04 1084.31 939.8 1085.07 945.61 1080.06C949.11 1077.06 952.38 1073.55 953.61 1068.82C954.49 1065.33 956.34 1063.7 960.08 1064.41C962.384 1064.9 964.779 1064.74 967 1063.96C975.67 1060.64 984.76 1061.77 993.68 1061.46C997.36 1061.33 1001.51 1061.16 1003.96 1065.09C1004.81 1067.26 1005.06 1069.63 1004.67 1071.93C1003.77 1077.29 1002.93 1082.68 1003.38 1087.03C1003.8 1085.46 1003.28 1082.7 1003.44 1080.03C1003.52 1078.66 1003.59 1077.13 1005.32 1077.03C1006.76 1077.03 1007.04 1078.48 1007.26 1079.56C1009.4 1089.77 1012.16 1099.85 1014.08 1110.11C1013.83 1114.47 1010.61 1116.87 1007.59 1119.11C1000.86 1124.11 993.59 1128.11 985.09 1129.36C981.637 1129.96 978.251 1130.89 974.98 1132.15C968.16 1134.6 966.72 1139.28 970.55 1145.5C972.78 1149.12 976.31 1151.07 979.9 1152.73C983.054 1154.09 985.581 1156.59 986.98 1159.73C990.79 1167.44 998.09 1171.4 1005.72 1174.64C1006.82 1175.07 1007.89 1175.56 1008.94 1176.1C1009.8 1176.47 1010.53 1177.1 1011.01 1177.91C1007.2 1192.71 1001.94 1207.09 995.31 1220.86C983.05 1245.94 972.88 1271.91 961.48 1297.36C957.63 1305.97 952.48 1313.99 947.98 1322.36C947.04 1324.11 944.92 1325.6 946.92 1328.09C947.92 1329.28 946.16 1329.48 945.56 1330.09C942.99 1332.79 941.11 1336.01 940.99 1339.74C940.62 1351.62 940.68 1363.36 943.27 1375.19C945.642 1386.17 947.222 1397.3 948 1408.5C948.85 1420.02 950.9 1431.5 952.33 1442.93C953.26 1450.48 954.2 1458.04 954.81 1465.61C956.24 1483.27 958.25 1500.93 958.53 1518.61C958.77 1533.14 960.53 1547.61 959.18 1562.28C957.91 1575.77 957.42 1589.4 955.68 1602.85C953.86 1616.92 950.68 1630.85 948.41 1644.85C945.83 1661 943.83 1677.27 939.77 1693.13C934.77 1712.59 936.66 1732.4 935.67 1752.13C934.68 1771.86 934.22 1791.63 933.67 1811.39C932.93 1838.21 930.67 1864.93 924.9 1891.25C921.553 1907.34 915.823 1922.85 907.9 1937.25C902.61 1946.64 894.69 1953.36 884.9 1957.89C880.38 1961.69 874.69 1961.75 869.36 1962.15C838.55 1964.47 809.75 1956.38 781.93 1944.2C769.03 1938.56 765.23 1930.2 767.63 1916.1C767.829 1914.95 768.262 1913.85 768.9 1912.87C771.22 1906.74 771.23 1900.18 771.73 1893.87C772.73 1881.49 774.99 1869.29 776.13 1856.94C777.13 1845.94 778.65 1834.94 779.9 1823.94C780.9 1815.55 782.2 1807.2 782.06 1798.7C782.218 1797.17 782.929 1795.75 784.06 1794.7C785.74 1821.6 782.06 1848.23 779.62 1875.97C781.61 1873.34 782.723 1870.15 782.8 1866.86C784 1849.16 785.03 1831.45 785.89 1813.74C786.89 1791.28 783.3 1769.4 776.01 1748.25C765.85 1718.8 754.64 1689.72 744.74 1660.18C736.65 1636.02 729.02 1611.69 723.74 1586.65C718.94 1563.94 717.49 1540.83 714.23 1517.94C712.32 1504.56 711.85 1490.94 710.66 1477.39C709.18 1460.5 709.36 1443.61 708.47 1426.74C707.803 1414.21 707.32 1401.68 707.02 1389.13C706.94 1385.58 706.17 1383.98 702.41 1382.41C669.95 1368.94 636.77 1356.86 607.59 1336.63C602.94 1333.41 597.81 1330.98 593.38 1327.48C592.38 1326.68 591.82 1326.11 590.46 1326.97C576.94 1335.52 561.36 1338.72 546.46 1343.73C508.12 1356.62 469.15 1367.43 429.96 1377.27C398.34 1385.27 366.87 1393.7 335.41 1402.21C324.56 1405.14 314.21 1409.89 303.41 1413.21C289.41 1417.49 275.74 1423.39 260.92 1424.88C261.06 1421.56 264.12 1421.51 266.02 1419.99C260.13 1420.99 254.58 1423.08 249.02 1425.07C237.55 1429.14 226.56 1434.4 215.09 1438.46C212.09 1439.52 209.09 1440.52 206.09 1441.46C201.646 1442.77 196.915 1442.73 192.49 1441.36C178.3 1437.45 164.09 1439.07 150.15 1443.23C147.75 1443.95 145.22 1445.32 145.45 1448.34C145.68 1451.36 148.3 1452.15 150.82 1452.74C158.46 1454.53 166.31 1454.83 174.07 1455.74C176.07 1455.98 178.49 1455.74 178.96 1458.24C179.41 1460.53 177.03 1461.02 175.51 1461.89C173.119 1463.07 170.857 1464.5 168.76 1466.15C165.4 1469.15 166.14 1472.63 170.4 1474.15C172.61 1474.92 174.96 1475.15 177.21 1475.75C183.75 1477.5 184.64 1478.75 183.85 1485.61C185.086 1484.78 186.086 1483.65 186.75 1482.32C189.75 1477.5 189.21 1474.01 184.41 1470.95C181.15 1468.86 181.68 1467.31 184.29 1465.4C185.91 1464.22 187.73 1463.4 189.44 1462.33C191.66 1461 193.74 1459.45 193.3 1456.49C192.86 1453.53 190.43 1452.18 187.7 1451.49C183.32 1450.49 178.82 1450.09 174.38 1449.39C172.79 1449.14 170.97 1449.39 170.04 1447.5C171.36 1445.41 173.53 1445.64 175.42 1445.81C181.04 1446.32 186.79 1446.37 192.14 1448.38C195.604 1449.64 199.395 1449.67 202.88 1448.47C215.22 1444.8 226.88 1439.47 238.45 1433.94C240.8 1432.82 243.05 1431.08 245.95 1432.03C251.52 1438.03 253.23 1446.03 256.8 1453.11C265.1 1469.5 272.8 1486.18 280.13 1503.04C287.94 1520.97 296.06 1538.76 305.08 1556.14C314.94 1575.14 326.61 1593.01 337.83 1611.14C338.07 1611.53 338.59 1611.75 338.98 1612.05C343.18 1614.63 345.26 1618.92 347.14 1623.05C355.54 1641.59 362.2 1660.75 365.59 1680.87C367.5 1692.2 368.45 1703.71 365.8 1715.06C361.01 1735.62 350.37 1752.06 331.07 1761.88C322.92 1766.05 314.27 1769.09 306.07 1773.22C303.34 1774.59 300.28 1775.81 296.98 1775.04C294.7 1775.38 292.37 1775.56 290.14 1776.1C287.24 1776.82 284.79 1777.37 286.25 1772.91C286.55 1771.99 285.56 1771.91 285.17 1771.48C271.12 1754.48 257.51 1737.12 242.9 1720.63C224.18 1699.49 207.99 1676.4 190.03 1654.7C180.6 1643.31 169.3 1633.7 157.3 1625.08C155.287 1623.59 153.418 1621.92 151.72 1620.08C131.15 1598.3 107.8 1579.58 85.48 1559.72C66.9164 1543.28 51.3337 1523.76 39.42 1502.01C30.48 1485.71 21.42 1469.53 13.8 1452.52C8.33 1440.26 2.18 1428.29 0.7 1414.66C0.7 1414.4 0.28 1414.18 0.05 1413.95L0 1379.86Z" fill="#F1E3AF"/>
<path d="M511.87 347.81C511.22 334.07 511.06 320.28 509.79 306.59C508.31 290.59 509.55 274.68 508.86 258.75C508.45 249.36 506.67 240.08 505.64 230.75C504.32 218.69 505.64 207.01 507.42 195.25C509.12 183.85 513.65 173.15 515.9 161.88C519.2 145.31 523.26 129.01 530.84 113.75C537.929 99.1975 546.801 85.5831 557.25 73.22C575.62 51.77 599.53 37 621.64 20C626.88 16 633.53 13.9 638.31 9.6C643.72 4.74 648.95 5.16 655.31 5.78C663.5 6.57 671.55 3.7 679.67 2.53C684.74 1.79 690.03 2.15 694.88 0H706.88C729.06 8 748.71 20.87 768.69 33C787.79 44.61 800.37 61.27 807.32 82.62C813.11 100.39 821.05 117.36 828.47 134.51C834.13 147.58 841.25 159.9 847.84 172.51C854.13 184.51 856.19 197.85 857.94 211.2C859.695 224.483 862.808 237.552 867.23 250.2C871 261.01 875.59 271.53 878.89 282.5C880.966 288.983 881.517 295.859 880.5 302.59C877.03 322.83 879.42 342.41 885.21 361.87C887.91 370.96 892.02 379.6 893.82 388.97C893.73 392.15 891.3 392.16 889.21 392.04C878.43 391.43 868.09 393.89 857.73 396.26C842.53 399.74 827.4 403.5 813.06 409.88C811.838 410.419 810.501 410.646 809.17 410.54C805.6 409.06 807.17 406.43 807.97 404.24C811.39 394.32 815.09 384.49 818.97 374.75C823.2 364.1 824.97 352.95 826.58 341.75C829.14 324.09 826.58 306.65 825.07 289.08C823.83 274.7 821.87 260.69 816.77 247.08C811.43 232.89 804.71 219.25 800.24 204.73C799.17 201.24 796.39 202.09 794.02 202.58C784.712 204.518 775.672 207.577 767.1 211.69C760.04 215.06 753.57 219.62 746.1 222.22C744.252 222.977 742.337 223.56 740.38 223.96C734.64 224.81 730.64 222.55 729.44 217.77C728.32 213.38 730.96 208.34 735.59 206.51C742.41 203.82 749.59 202.05 756.42 199.51C768.13 195.15 779.79 190.66 791.84 187.31C794.39 186.59 795.21 185.31 794.98 182.62C794.26 174.22 791.8 166.3 788.98 158.44C787.737 155.321 785.588 152.646 782.81 150.76C776.924 146.384 770.787 142.357 764.43 138.7C747.99 129.22 734.19 116.38 720.22 103.77C716.29 100.23 715.87 99.96 712.64 104.46C705.15 114.88 699.13 126.27 691.82 136.81C680.42 153.23 668.75 169.44 656.42 185.2C646.99 197.2 638.21 209.81 629.21 223.86C637.7 221.18 645.35 220.11 652.99 218.92C661.54 217.59 670.21 217.15 678.66 215.05C682.66 214.05 688.35 217.22 689.54 220.49C690.73 223.76 688.73 228.83 684.95 231.26C680.31 234.26 674.95 234.69 669.62 235.2C658.52 236.26 647.35 236.75 636.62 240.1C635.98 240.3 636.79 240.1 636.14 240.22C623.56 242.76 615.72 249.98 612.27 262.6C608 278.2 604.27 293.91 600.99 309.73C600.5 312.07 600.35 314.41 601.56 316.56C604.81 322.37 607.45 328.5 610.96 334.19C619.25 347.65 624.61 362.31 628.2 377.66C628.59 381.52 630.67 384.93 631.2 388.75C633.66 396.44 635.44 404.29 637.2 412.16C637.582 413.251 637.607 414.435 637.27 415.54C635.14 417.04 634.44 415.05 633.63 413.88C632.484 412.13 631.551 410.25 630.85 408.28C630.04 405.07 628.32 402.15 627.69 398.87C627.53 396.02 626.38 393.39 625.76 390.64C625.66 385.31 623.19 381.92 618.35 379.35C598.49 368.79 578.35 358.97 556.13 354.41C544.01 351.93 531.81 350.58 519.71 354.78C519.553 354.831 519.392 354.871 519.23 354.9C511.48 356.81 510.74 356.09 511.87 347.81Z" fill="#7C5B46"/>
<path d="M1501.78 1830.81C1499.04 1831.54 1496.43 1832.45 1494.61 1834.88C1493.82 1835.88 1492.7 1836.82 1491.21 1836.33C1490.81 1836.19 1490.47 1835.93 1490.24 1835.58C1490.01 1835.22 1489.9 1834.8 1489.94 1834.38C1490.03 1832.69 1491.58 1832.38 1492.7 1831.88C1495.47 1830.34 1498.62 1829.62 1501.78 1829.81V1830.81Z" fill="#E2DED0"/>
<path d="M422.94 955.91C410.26 954.53 397.94 950.96 385.43 948.98C373.79 947.13 362.88 943.58 353.1 936.98C346.23 932.31 341.1 925.93 335.4 919.98C323.1 907.17 323.53 891.85 323.07 876.51C322.35 852.76 325.72 829.33 329.65 805.95C331.59 794.39 332.65 782.67 333.57 770.95C334.62 757.18 337.57 743.82 341.23 730.59C345.78 714.16 350.98 697.91 355.13 681.39C361.65 655.39 368.29 629.39 373.45 603.18C377.438 582.54 382.783 562.186 389.45 542.25C395.73 523.6 403.78 505.68 416.93 490.8C427.42 478.92 438.42 467.38 453.83 461.41C462.1 458.21 470.77 456.9 479.37 455.41C488.69 453.79 497.71 451.06 506.93 449.16C507.924 449.017 508.926 448.94 509.93 448.93C511.76 448.12 512.93 449.45 514.37 450.18C516.005 451.386 517.757 452.425 519.6 453.28C522.38 454.56 525.49 454.83 528.26 456.11C531.78 457.67 535.41 458.96 539.03 460.24C543.23 462.6 547.78 464.14 552.24 465.89C557.31 468.13 562.16 470.82 567.18 473.16C574.288 477.56 581.632 481.566 589.18 485.16C599.55 489.88 608.93 496.02 616.74 504.4C628.927 515.63 642.237 525.575 656.46 534.08C664.95 539.08 673.06 541.34 682.12 536.25C682.73 535.982 683.384 535.829 684.05 535.8C686.69 535.713 689.332 535.847 691.95 536.2C696.68 536.53 698.75 534.1 697.75 529.53C696.588 524.503 694.648 519.688 692 515.26C688.39 508.39 683.71 501.99 682.74 493.97C682.4 490.97 680.37 488.1 681.74 484.89C683.8 484.1 685.2 485.46 686.74 486.42C704.74 497.68 723.74 506.96 743.17 515.2C753.08 519.4 763.72 521.88 774.41 523.7C779.89 524.62 784.95 526.86 790 528.93C808.43 536.49 826.56 538.93 844.25 527.01C844.831 526.672 845.473 526.454 846.14 526.37C852.36 527.04 858.45 528.59 864.7 529.21C874.51 530.21 883.82 529.32 891.7 522.65C894.21 515.54 897.78 508.87 900.01 501.65C901.939 496.775 903.102 491.631 903.46 486.4C903.41 481.89 904.74 477.49 904.46 472.97C904.41 470.4 904.39 467.82 904.41 465.25C904.523 462.483 904.503 459.716 904.35 456.95C904.25 455.11 904.25 453.34 905.82 452.02C909.5 448.42 913.82 449.02 918.28 450.02C942.99 455.72 967.64 461.76 990.73 472.55C1009.45 481.465 1027.42 491.879 1044.46 503.69C1061.57 515.36 1074.46 530.79 1084.15 548.23C1096.76 570.79 1106.15 594.95 1109.91 620.92C1113.06 642.8 1116.18 664.69 1120.13 686.43C1121.39 693.34 1124.39 699.94 1125.13 707.13C1125.71 713.04 1126.62 718.92 1126.89 724.88C1127.54 738.88 1126.26 752.88 1127.77 766.95C1129.92 786.83 1131.15 806.83 1135.05 826.48C1136.47 833.6 1139.88 840.16 1141.38 847.38C1142.58 853.15 1141.48 858.84 1142.44 864.56C1144.15 874.69 1147.97 883.99 1152.44 893.03C1162.53 913.2 1171.44 933.93 1182.14 953.82C1188.55 965.77 1190.8 978.96 1192 992.51C1193.08 1004.68 1190 1016.04 1187.69 1027.62C1187.26 1029.75 1185.56 1029.9 1183.82 1029.92C1182.82 1029.11 1182.74 1027.92 1182.52 1026.78C1180 1013.52 1173.21 1002.71 1163.3 993.78C1155.14 986.44 1147.03 979.11 1135.62 976.83C1121.39 973.98 1109.06 976.54 1098.62 987.23C1093.74 992.23 1089.74 998.03 1084.24 1002.42C1083.38 1003 1082.44 1003.45 1081.45 1003.76C1070.45 1005.76 1060.72 1011.6 1049.97 1014.4C1047.61 1015.01 1045.36 1016.45 1042.78 1015.29C1040.23 1012.68 1039.11 1009.44 1038.5 1005.92C1037.17 998.2 1036.9 990.37 1036.06 982.6C1034.51 968.35 1028.31 955.44 1023.82 942.05C1017.35 922.74 1008.55 904.41 999.1 886.4C994 876.66 987.91 867.48 982.58 857.87C979.75 852.77 976.92 847.67 975.7 841.87C975.681 840.028 976.139 838.212 977.03 836.6C984.11 821.93 990.25 806.83 997.61 792.29C1006.2 775.29 1012.35 757.36 1018.28 739.29C1023.58 723.15 1029.15 707.09 1030.86 690.07C1032.25 677.552 1032.25 664.918 1030.86 652.4C1029.07 657.325 1028.22 662.541 1028.34 667.78C1028.48 686.91 1022.96 704.86 1018.08 723.03C1011.08 749.17 999.74 773.63 989.72 798.65C983.14 815.08 973.65 830.02 967.37 846.55C960.43 864.81 954.6 883.32 951.28 902.55C950.92 904.63 951.49 905.55 953.28 906.12C954.4 908.27 953.72 910.4 953.05 912.43C950.53 920.05 948.27 927.68 949.91 935.86C949.984 936.357 949.953 936.864 949.819 937.348C949.685 937.832 949.45 938.282 949.13 938.67C947.31 939.67 945.85 938.52 944.54 937.67C928.9 927.3 910.73 923.28 893 918.21C880.38 914.59 867.44 912.1 854.52 909.56C841.6 907.02 829.69 901.73 818.12 895.9C803.128 888.26 787.266 882.464 770.88 878.64C759.06 875.92 747.49 872.18 735.34 870.88C728.7 870.17 728.41 870.11 727.43 876.88C724.25 898.97 721.11 921.07 722.25 943.5C722.48 948.03 721.36 952.44 721.1 956.93C721.02 958.24 720.8 959.62 719.34 960.27C705.82 958.46 692.19 957.99 678.63 956.76C668.42 955.83 658.41 958 648.33 958.91C630.1 960.57 612.05 964.19 593.79 965.02C573.88 965.93 553.89 966.22 533.95 964.67C522.85 963.8 511.73 963.28 500.62 962.51C486.2 961.51 471.83 960.33 457.48 958.57C448.099 957.263 438.631 956.684 429.16 956.84C427.09 956.93 424.84 957.4 422.94 955.91Z" fill="#F1E3AF"/>
<path d="M1083.85 1001.85C1089.51 995.11 1095.12 988.28 1101.85 982.58C1112.85 973.25 1125.53 973.06 1138.85 976.36C1149.56 979.02 1156.97 986.51 1164.75 993.36C1173.76 1001.34 1180.21 1011.81 1183.26 1023.46C1183.67 1025.57 1183.87 1027.72 1183.85 1029.87C1185.85 1039.74 1185.73 1049.33 1181.91 1058.97C1177.22 1070.83 1174.73 1083.38 1171.69 1095.76C1168.85 1107.33 1166.05 1119.18 1158.22 1128.65C1153 1134.96 1145.07 1137.47 1137.82 1140.65C1126.63 1145.55 1114.63 1147.42 1102.63 1148.65C1092.93 1149.65 1084.16 1153.65 1074.81 1155.72C1074.81 1152.62 1077.66 1151.88 1079.47 1150.43C1088.56 1143 1096.54 1134.31 1103.16 1124.61C1092.87 1136.74 1081.42 1147.83 1068.96 1157.71C1058.62 1162.57 1048.18 1167.24 1037.96 1172.35C1029.38 1176.65 1020.77 1180.07 1010.96 1177.84C1010.55 1177.88 1010.14 1177.81 1009.77 1177.63C1009.41 1177.46 1009.09 1177.18 1008.87 1176.84C1009.56 1174.93 1011.25 1174.84 1012.87 1174.59C1010.53 1174.87 1008.32 1175.93 1005.87 1175.81C997.57 1173.16 989.68 1168.81 986.22 1161.03C983.72 1155.4 979.09 1154.55 975.37 1151.63C974.37 1150.82 972.97 1150.37 972.07 1149.45C968.74 1146.04 965.84 1142.01 967.07 1137.12C968.21 1132.74 972.49 1131.12 976.6 1130.05C985.52 1127.77 994.76 1126.46 1002.6 1120.95C1006.6 1118.11 1011.07 1115.74 1012.91 1110.71C1018.91 1098.55 1028.25 1088.8 1035.91 1078.36C1037.01 1077.97 1035.91 1077.18 1036.25 1077.71C1036.42 1077.95 1036.38 1078.08 1036.15 1078.16C1032.65 1079.49 1029.15 1078.34 1026.08 1077.22C1017.77 1074.32 1009.96 1070.18 1002.9 1064.93C1002.1 1064.21 1001.16 1063.66 1000.14 1063.3C999.124 1062.95 998.046 1062.8 996.97 1062.86C987.42 1063.06 977.74 1061.54 968.41 1064.86C964.53 1066.25 960.16 1064.57 956.79 1065.64C953.42 1066.71 954.7 1072.64 951.74 1075.32C948.62 1078.13 946.6 1081.82 942.07 1083.5C937.13 1085.33 933.19 1084.57 929.49 1081.83C919.89 1074.53 910.814 1066.57 902.33 1058C892.16 1048 882.01 1037.08 868.07 1033.21C851.66 1028.65 835.61 1022.93 819.07 1018.79C803.67 1014.93 788.46 1010.14 774.16 1003.01C763.16 997.53 753.82 990.01 746.82 979.75C745.846 978.198 744.525 976.893 742.96 975.94C738.12 970.48 734.84 964.03 731.49 957.85C731.68 961.42 736.49 963.57 734.92 967.94C731.47 964.03 726.01 964.46 721.92 961.94C720.1 962.38 720.06 961.08 719.92 959.88C721.3 945.47 720.15 930.98 721.08 916.59C721.95 903.11 724.18 889.71 726.02 876.3C727.11 868.3 727.24 868.87 736.35 869.76C755.79 871.65 774.02 878.38 792.72 883.16C804.52 886.16 814.57 893.58 825.88 897.97C835.44 901.68 844.7 906.46 854.88 908.32C873.77 911.79 892.47 915.87 910.7 921.95C919.94 925.04 929.21 928.12 938.22 931.8C942.11 933.39 945.37 936.51 948.91 938.93C951.91 938.1 953.56 940.34 955.19 942.07C960.591 947.958 965.41 954.354 969.58 961.17C975.215 970.011 981.57 978.373 988.58 986.17C992.748 990.921 996.393 996.108 999.45 1001.64C1000.9 1004.37 1002.77 1006.85 1005 1009C1008.46 1012.26 1007.35 1017 1006.4 1021.25C1004.02 1025.38 1003.58 1030.07 1002.57 1034.6C1000.96 1041.75 999.5 1048.94 994.27 1054.6C998.37 1052.06 1000.05 1049.47 1001.36 1044.22C1002.77 1038.56 1003.56 1032.8 1004.64 1027.08C1005.13 1024.48 1005.55 1021.78 1008.11 1020.18C1019.54 1020.11 1030.75 1018.73 1041.54 1014.75C1042.03 1014.67 1042.54 1014.71 1043.02 1014.85C1052.68 1012.75 1061.8 1009.04 1070.89 1005.31C1074.44 1003.85 1077.89 1002.5 1081.81 1002.9C1085.67 1002.73 1089.41 1003.9 1092.87 1003.9C1090.12 1003.1 1086.65 1004 1083.85 1001.85Z" fill="#FED9CB"/>
<path d="M296.93 1774.9C308.521 1770.92 319.784 1766.04 330.62 1760.31C351.11 1749.73 361.89 1732.17 365.04 1709.45C367.11 1694.45 364.04 1680.26 360.91 1665.86C357.63 1650.86 351.31 1636.98 345.69 1622.86C344.12 1618.93 341.21 1615.53 338.91 1611.86C342.992 1606.6 348.271 1602.38 354.31 1599.57C364.15 1594.81 373.46 1589 383.45 1584.51C398.38 1577.81 411.66 1582.63 424.17 1590.73C440.01 1600.98 447.06 1617.08 452.07 1634.44C455.88 1647.66 457.81 1661.28 460.52 1674.72C463.52 1689.72 464.76 1705.13 467 1720.32C468.144 1729.2 470.278 1737.92 473.36 1746.32C478.36 1759.22 481.02 1772.67 484.02 1786.07C485.57 1793 488.2 1799.73 489.26 1806.71C491.26 1819.71 492.4 1832.94 493.93 1846.07C495.05 1855.58 496.01 1865.13 497.46 1874.59C498.133 1878.66 498.53 1882.77 498.65 1886.9C498.84 1900.02 501.97 1912.9 500.92 1926.12C499.63 1942.28 498.51 1958.45 493.05 1973.95C487.65 1989.28 479.55 2002.52 466.55 2012.76C452.49 2023.82 429.92 2023.18 413.64 2012.87C410 2010.57 406.51 2008.01 403.11 2005.37C399.782 2002.87 397.061 1999.64 395.146 1995.94C393.232 1992.25 392.174 1988.16 392.05 1984C391.41 1969.61 389.67 1955.33 387.92 1941C385.85 1924.07 382.42 1907.45 371.71 1893.6C365.64 1885.76 359.1 1878.24 352.96 1870.42C347.32 1863.24 341.71 1856.04 336.96 1848.24C330.08 1836.88 321.66 1826.63 314.22 1815.68C305.79 1803.25 299.3 1790 296.93 1774.9Z" fill="#FAF6E9"/>
<path d="M768.88 1912.8C768.98 1919.26 768.74 1925.72 769.8 1932.16C770.27 1935.04 771.93 1936.45 774.02 1937.89C786.39 1946.44 800.76 1950.26 814.83 1954.49C830.042 1959.18 845.917 1961.36 861.83 1960.95C869.578 1960.63 877.279 1959.58 884.83 1957.82C882.42 1977.1 875.6 1994.96 867.83 2012.63C858.56 2033.74 851.43 2055.71 843.26 2077.26C835.63 2097.39 827.46 2117.38 815.51 2135.59C808.43 2146.37 802.51 2157.95 794.58 2168.16C786.65 2178.37 777.87 2188.36 767.42 2196.45C761.01 2201.45 755.1 2207.03 747.99 2211.05C734.39 2218.72 720.46 2225.71 705.31 2229.8C690.16 2233.89 675.16 2233.53 660.07 2230.29C655.99 2229.42 651.86 2229.67 647.75 2228.96C627.18 2225.37 608.81 2211.04 605.27 2191.82C603.56 2182.53 604.22 2173.35 605.03 2164.16C606.276 2150.93 609.958 2138.05 615.89 2126.16C622.899 2111.88 631.612 2098.5 641.84 2086.32C652.64 2073.32 663.38 2060.32 674.64 2047.73C683.07 2038.34 692.28 2029.56 698.53 2018.51C709.97 1998.28 724.8 1980.21 735.67 1959.6C742.505 1946.34 750.538 1933.73 759.67 1921.94C762.356 1918.53 765.449 1915.46 768.88 1912.8Z" fill="#FAF6E9"/>
<path d="M245.88 1431.83C232.93 1437.39 220.49 1444.14 206.97 1448.38C201.39 1450.12 196.23 1451.38 190.14 1449.12C184.03 1446.95 177.473 1446.35 171.07 1447.37C176.69 1448.2 182.32 1448.96 187.92 1449.89C191.41 1450.48 194.27 1452.12 194.92 1455.89C195.57 1459.66 193.09 1461.62 190.15 1463.23C187.55 1464.63 185.03 1466.23 182.15 1467.88C185.8 1469.99 189.92 1470.88 190.03 1475.67C190.17 1481.67 186.5 1485.29 182.24 1488.67C181.93 1488.28 181.74 1488.14 181.76 1488.05C184.26 1477.44 184.25 1478.6 173.02 1475.91C170.92 1475.41 168.7 1475.22 166.91 1474.01C163.97 1472.01 164.11 1467.52 167.41 1465.01C170.14 1463.15 172.997 1461.47 175.96 1460.01C176.9 1459.48 178.63 1459.61 178.24 1458.01C177.91 1456.71 176.39 1456.9 175.24 1456.81C167.15 1456.31 159.094 1455.35 151.11 1453.95C147.3 1453.23 143.87 1451.95 143.52 1448.04C143.17 1444.13 146.79 1442.37 150.01 1441.44C161.27 1438.19 173.43 1434.99 184.34 1438.44C200.49 1443.44 213.71 1437.57 227.55 1432.04C239.55 1427.23 251.38 1421.9 263.99 1418.72C264.763 1418.42 265.559 1418.19 266.37 1418.02C266.666 1417.98 266.967 1418 267.255 1418.08C267.543 1418.16 267.812 1418.29 268.044 1418.48C268.277 1418.67 268.468 1418.9 268.607 1419.17C268.746 1419.43 268.828 1419.72 268.85 1420.02C269.08 1421.77 267.59 1420.89 266.85 1421.2C264.72 1422.09 262.41 1422.7 260.97 1424.74L245.88 1431.83Z" fill="#D3C48D"/>
<path d="M903.71 442C905.28 445.16 904.71 448.57 904.93 451.9C903.93 455.26 901.6 453.71 899.93 452.99C890.57 448.93 880.8 447.78 870.7 448.34C841.22 449.97 814.89 458.34 796.04 482.9C794.66 484.7 793.19 486.69 790.4 486.38C787.32 482.8 787.13 478.69 788.17 474.38C795.28 466.29 801.85 457.73 810.82 451.38C824.36 441.82 839.59 437.03 855.75 434.76C868.84 432.92 881.91 432.49 894.66 437.09C897.94 438.2 901.41 439 903.71 442Z" fill="#986A64"/>
<path d="M790.53 486.07C795.98 482.89 798.71 477.07 803.13 472.87C815.547 460.834 831.301 452.82 848.34 449.87C857.438 448.2 866.646 447.198 875.89 446.87C884.61 446.57 892.61 448.73 900.53 451.87C901.97 452.44 903.44 453.94 904.93 451.93C905.221 452.011 905.519 452.068 905.82 452.1C905.78 456.4 905.743 460.693 905.71 464.98C904.33 465.57 903.09 464.98 901.89 464.43C889.46 458.76 876.56 458.49 863.29 460.54C852.916 462.029 842.707 464.5 832.8 467.92C818.187 472.934 805.799 482.922 797.8 496.14C796.87 497.65 796.13 499.55 793.73 499.14C791.42 495 788.59 491.12 790.53 486.07Z" fill="#A06F6C"/>
<path d="M903.71 442C891.829 436.301 878.64 433.884 865.51 435C843.89 436.94 823.51 441.9 806.43 456.69C801.576 460.932 797.188 465.679 793.34 470.85C792.26 472.27 791.15 473.85 789.05 473.97C786.31 467.97 788.05 462.37 790.8 456.9C795.72 454.82 798.53 450.22 802.38 446.9C819.59 431.99 839.58 424.03 862.1 422.22C873.042 421.207 884.075 422.429 894.53 425.81C897.22 426.71 899.91 427.58 901.72 430C903.86 433.7 902.63 438 903.71 442Z" fill="#92675D"/>
<path d="M901.72 430C892.752 425.681 882.953 423.36 873 423.2C862.008 422.978 851.044 424.397 840.47 427.41C824.81 432.09 811.61 440.47 799.47 450.98C797.712 452.717 796.075 454.571 794.57 456.53C793.75 457.53 792.94 458.35 791.84 456.85C791.363 456.373 791.038 455.764 790.908 455.101C790.778 454.439 790.849 453.753 791.11 453.13C793.11 446.75 796 440.8 800.82 435.98C807.29 431.98 813.75 427.88 820.37 424.08C837.89 414.02 856.71 409.4 876.8 410.75C884.79 411.146 892.602 413.26 899.7 416.95C900.373 421.277 901.047 425.627 901.72 430Z" fill="#8B6356"/>
<path d="M808.89 410C821.979 404.548 835.473 400.125 849.25 396.77C860.62 393.89 872.18 391.92 883.77 390.17C885.17 389.96 886.36 390.53 887.65 390.73C889.89 391.09 892.37 391.79 893.84 389.07C896.7 393.99 896.42 399.69 897.72 405C896.27 406.33 894.58 405.82 892.98 405.52C879.552 403.038 865.759 403.314 852.44 406.33C838.63 409.33 826.1 415.45 813.44 421.33C811.44 422.33 809.29 423.94 807.22 421.33C806.45 419.77 806.57 418.09 806.52 416.43C806.498 415.338 806.552 414.245 806.68 413.16C806.72 412.481 806.948 411.826 807.338 411.268C807.728 410.71 808.265 410.271 808.89 410Z" fill="#805D4B"/>
<path d="M807.76 420.71C807.881 420.983 808.063 421.224 808.292 421.416C808.521 421.607 808.792 421.742 809.082 421.812C809.372 421.882 809.675 421.884 809.966 421.817C810.257 421.751 810.529 421.618 810.76 421.43C821.27 415.75 832 410.43 843.53 407.27C855.26 404.08 867.05 401.12 879.59 402.69C885.59 403.44 891.76 403.69 897.76 404.96C899.31 408.81 899.3 412.96 899.76 416.96C897.927 417.035 896.101 416.693 894.42 415.96C875.76 409.8 857.35 410.87 838.92 417.35C826.567 421.706 814.966 427.954 804.53 435.87C803.473 436.681 802.145 437.057 800.82 436.92C799.82 431.3 803.31 426.86 804.82 421.92C805.07 420.83 806.49 420.47 807.76 420.71Z" fill="#856050"/>
<path d="M1069 1157.78C1075.34 1149.62 1084.18 1144.03 1091 1136.32C1094.27 1132.6 1097.62 1128.94 1101 1125.32C1102 1124.19 1103 1122.66 1105.41 1123.14C1102.66 1128.52 1098.95 1132.86 1095.14 1137.08C1089.04 1143.99 1082.24 1150.26 1074.86 1155.78L1069 1157.78Z" fill="#E8B7A4"/>
<path d="M416.92 1031.89C429.92 1027.77 442.79 1029.89 455.52 1032.74C481.14 1038.38 504.81 1049.3 528.31 1060.59C549.664 1070.93 572.503 1077.86 596 1081.13C616.19 1083.92 636.24 1086.68 656.72 1087.21C676.12 1087.71 695.55 1088.39 714.9 1087.62C733.19 1086.89 751.54 1086.3 769.81 1084.11C784.24 1082.37 798.81 1081.81 813.29 1080.2C821.12 1079.32 829.13 1080.05 837.05 1079.87C859.31 1079.36 880.78 1083.87 902.15 1089.44C917.891 1093.4 933.416 1098.18 948.66 1103.76C956.263 1106.69 963.566 1110.35 970.47 1114.68C971.78 1115.49 973.42 1116.35 972.42 1118.08C971.54 1119.62 969.99 1118.46 968.86 1117.97C962.29 1115.13 955.01 1116.69 948.35 1114.56C939.35 1111.69 930.43 1108.62 921.35 1105.93C902.62 1100.36 883.84 1094.64 864.46 1092.22C846.494 1090.05 828.341 1089.89 810.34 1091.75C800.96 1092.68 791.48 1092.81 782.13 1093.97C767.01 1095.86 751.8 1096.54 736.64 1097.75C736.3 1097.75 735.97 1097.84 735.64 1097.85C711.91 1098.09 688.17 1100.13 664.45 1098.28C657.7 1097.76 651.02 1098.34 644.29 1098.09C628.592 1097.34 612.957 1095.59 597.48 1092.86C581.58 1090.22 565.86 1086.86 551.07 1080.34C536.28 1073.82 521.96 1066.62 507.34 1059.89C492.921 1053.14 478.048 1047.41 462.83 1042.73C450.61 1039.07 437.98 1037.5 425.73 1034.12C423.134 1033.4 420.376 1033.51 417.85 1034.45C416.65 1034.91 415.58 1034.96 414.76 1033.78L416.92 1031.89Z" fill="#D3C48D"/>
<path d="M511.87 347.81C512.05 355.58 512.18 355.95 519.51 353.53C535.1 348.39 550.33 351.17 565.39 355.35C581.39 359.77 596.81 365.72 611.03 374.49C613.88 376.154 616.864 377.579 619.95 378.75C625.95 381.13 627.05 385.5 626.95 390.96C624.47 392.76 622.58 391.04 620.6 389.89C608 382.56 595 376.17 581 372.42C566.19 368.42 551.14 365.51 535.6 368.28C528.383 369.617 521.393 371.974 514.84 375.28C513.05 376.17 510.67 378.93 508.94 374.96C510.77 366 510.62 356.82 511.87 347.81Z" fill="#815E4C"/>
<path d="M628.9 399C629.9 401.986 630.9 404.986 631.9 408C629.21 409 627.06 407.47 624.9 406.43C614.37 401.43 603.63 396.9 592.11 394.88C577.02 392.23 561.85 391.37 546.53 393.68C537.74 395.01 529.31 397.01 521.25 400.79C515.25 403.6 510.46 407.88 505.64 412.21C504.36 413.36 503.27 415.21 501.03 414.01C501.93 407.28 501.51 400.28 505.03 394.07C516.201 385.576 529.43 380.206 543.36 378.51C567.81 375.34 590.65 380.75 612.81 390.22C618.34 392.58 624.1 395 628.9 399Z" fill="#8D6459"/>
<path d="M628.9 399C624.3 399 620.9 395.81 617.23 393.9C601.818 385.835 584.973 380.871 567.65 379.29C546.73 377.44 526.26 380.23 508.4 392.99C507.4 393.69 506.51 394.99 504.96 394.06C506.01 387.63 506.62 381.12 508.9 374.94C510.44 376.94 511.97 375.52 513.29 374.76C529.18 365.66 546.1 364.48 563.83 367.35C575.428 369.164 586.771 372.346 597.62 376.83C605.88 380.207 613.838 384.278 621.41 389C623.13 390.09 624.78 391.13 626.91 391C628 393.52 629.15 396.07 628.9 399Z" fill="#866051"/>
<path d="M501 414C504.2 413.38 505.64 410.4 507.69 408.49C519.69 397.31 534.34 393.86 549.93 391.86C563.6 390.11 577.09 391 590.47 393.17C599.307 394.498 607.899 397.123 615.97 400.96C621.18 403.51 626.59 405.66 631.91 407.96C633.61 410.56 634.05 413.96 636.75 415.96C636.853 416.046 636.933 416.157 636.984 416.281C637.035 416.405 637.055 416.54 637.042 416.674C637.029 416.808 636.984 416.936 636.911 417.049C636.837 417.161 636.737 417.254 636.62 417.32C634.62 418.04 633.05 417 631.42 416.23C614.02 408.07 595.67 404.13 576.5 403.23C560.547 402.394 544.577 404.506 529.39 409.46C520.848 412.393 513.218 417.501 507.25 424.28C506.92 424.65 506.63 425.06 506.25 425.44C504.84 427.03 503.33 429.79 501.25 428.8C499.41 427.91 500.25 425 500.86 422.93C501.43 420 498.75 417 501 414Z" fill="#94685F"/>
<path d="M500.92 422.94V427.84C502.67 428.56 503.28 427.21 503.84 426.44C512.97 413.86 525.95 408.14 540.64 404.81C549.814 402.729 559.175 401.586 568.58 401.4C576.666 401.332 584.743 401.935 592.73 403.2C608.25 405.54 622.73 410.59 636.96 416.95C640.59 418.82 643.76 421.08 644.19 425.62C642.44 427.46 640.77 426.03 639.19 425.39C629.52 421.39 619.87 417.48 609.52 415.47C596.335 412.8 582.847 411.945 569.43 412.93C560.32 413.65 551.31 414.22 542.32 416.21C527.06 419.57 514.18 426.07 505.71 439.77C504.85 441.18 504.25 443.31 501.82 443.01C498.64 439.85 500.12 435.86 500.05 432.21C500 429.12 499.59 425.93 500.92 422.94Z" fill="#9B6C67"/>
<path d="M513.85 451L509.85 448.92L507.85 447.01C510.13 438.62 516.59 433.82 523.47 429.82C534.15 423.62 546.18 421.37 558.23 419.77C577.021 417.199 596.1 417.591 614.77 420.93C625.912 422.98 636.694 426.652 646.77 431.83C649.362 433.331 652.087 434.589 654.91 435.59C659.66 437.14 661.74 441.32 664.15 445.12C664.494 445.589 664.643 446.172 664.567 446.748C664.49 447.324 664.194 447.848 663.74 448.21C661.21 448.57 659.25 447.21 657.28 446C641.05 436.42 623.34 432 604.72 430.22C583.513 428.079 562.092 429.938 541.57 435.7C532.47 438.25 523.86 441.45 517.57 449.05C516.65 450.16 515.66 451.45 513.85 451Z" fill="#A67272"/>
<path d="M719.93 959.84C720.6 960.53 721.26 961.22 721.93 961.9C720.04 965.17 716.75 964.19 714.27 963.76C701.03 961.47 687.6 961.54 674.27 960.31C665.51 959.5 656.83 961.41 648.13 962.14C638.28 962.98 628.51 964.72 618.68 965.84C601.611 967.959 584.418 968.908 567.22 968.68C547.4 968.22 527.56 967.27 507.8 965.09C494.99 963.67 482.09 963.09 469.26 961.85C459.26 960.85 449.26 959.3 439.26 958.25C435.15 957.82 430.96 958.05 426.81 957.98C425.34 957.61 423.1 958.68 422.9 955.91C442.36 955.09 461.58 957.8 480.9 959.76C492.76 960.97 504.76 960.76 516.62 961.99C540.62 964.43 564.77 964.17 588.86 963.75C599.73 963.55 610.58 961.75 621.43 960.55C631.61 959.42 641.76 958.09 651.93 956.92C657.18 956.31 662.43 955.6 667.7 955.33C681.47 954.64 695.09 956.66 708.77 957.68C712.6 958 716.42 958.07 719.93 959.84Z" fill="#D3C48E"/>
<path d="M655.21 436.84C649.68 435.96 645.15 432.62 640.21 430.39C629.215 425.487 617.526 422.319 605.56 421C583.47 418.37 561.56 419.23 539.89 424.74C526.36 428.18 515.28 434.91 507.83 446.99C505.402 446.449 503.263 445.023 501.83 442.99C507.45 434.78 513.1 426.82 522.31 421.85C530.51 417.43 539.31 415.04 548.19 413.6C565.462 410.641 583.08 410.277 600.46 412.52C614.942 414.657 629.002 419.043 642.13 425.52C642.419 425.684 642.759 425.734 643.083 425.66C643.407 425.586 643.691 425.393 643.88 425.12C649.22 427.5 653.49 430.94 655.21 436.84Z" fill="#A06E6C"/>
<path d="M526.81 1262.23C526.758 1262.85 526.527 1263.44 526.146 1263.93C525.764 1264.42 525.248 1264.79 524.66 1264.99C507.04 1274.14 489.98 1284.14 470.33 1289.22C446.46 1295.39 422.49 1301.09 398.59 1307.13C382.59 1311.13 366.59 1315.47 350.47 1319.32C333.94 1323.32 316.96 1325.32 300.33 1328.95C289.65 1331.25 279.28 1334.95 268.69 1337.63C267.08 1338.05 264.57 1340.25 263.38 1337.81C262.19 1335.37 265.3 1334.63 266.77 1333.72C277.06 1327.36 288.52 1323.6 300.17 1321.18C320.1 1317.05 340.04 1313.03 359.72 1307.76C377.79 1302.92 395.79 1297.76 414.01 1293.52C430.14 1289.8 446.11 1285.52 462.01 1280.9C482.36 1275.02 502.48 1268.36 522.74 1262.16C523.88 1261.8 525.65 1260 526.81 1262.23Z" fill="#D3C48D"/>
<path d="M868.1 1271.21C860.407 1273.43 852.447 1274.59 844.44 1274.66C825.63 1274.94 809.77 1282.4 795.14 1293.24C790.86 1296.41 786.29 1299.04 781.83 1301.87C780.89 1302.45 779.71 1303.38 778.65 1302.4C777.59 1301.42 778.78 1300.26 779.23 1299.32C784.07 1289.15 792.83 1283.02 801.94 1277.17C814.692 1268.73 829.589 1264.1 844.88 1263.83C853.19 1263.68 860 1267.69 868.1 1271.21Z" fill="#D3C48D"/>
<path d="M730.65 1207C690.19 1229.68 650.24 1252.89 616.47 1285.2C647 1248 685.77 1223 730.65 1207Z" fill="#D3C48E"/>
<path d="M704.9 1377.31C700.47 1361.31 697.43 1345.31 698.77 1328.75C701.43 1333.67 702.25 1338.98 702.98 1344.38C703.71 1349.78 705.2 1355.01 704.98 1360.55C704.76 1366.09 704.9 1371.72 704.9 1377.31Z" fill="#D3C58E"/>
<path d="M734.92 967.92C734.15 963.15 729.04 960.01 730.69 954.16L743 975.92C739.56 974 737.64 970.54 734.92 967.92Z" fill="#E8B7A4"/>
<path d="M561.91 1208.28C561.906 1207.57 562.056 1206.87 562.35 1206.22C563.72 1204.22 563.71 1199.77 567.3 1201.44C570.89 1203.11 566.35 1205.05 566.3 1207.07C566.153 1207.89 565.81 1208.66 565.3 1209.31C564.66 1210.31 565.62 1212.59 563.62 1212.31C561.62 1212.03 562 1210.11 561.91 1208.28Z" fill="#D4C58E"/>
<path d="M774.93 1928.44L782.53 1934.7L781.65 1935.57C779.34 1933.09 773.86 1933.69 774.93 1928.44Z" fill="#F9F5E8"/>
<path d="M1005.88 1175.87C1008.67 1173.96 1012.05 1174.34 1015.69 1172.69C1013.75 1175.95 1010.82 1175.55 1008.85 1176.9L1005.88 1175.87Z" fill="#ECBCAB"/>
<path d="M808.89 410L807.72 413C804.72 419.55 798.6 423.12 793.45 427.39C780.06 438.51 763.95 443.39 747.02 446.39C721.16 450.92 699.59 440.94 679.61 426.48C663.72 414.97 649.21 401.69 634.86 388.28C631.739 385.274 629.108 381.799 627.06 377.98C623.12 363.34 618.42 348.98 610.43 335.98C606.72 329.93 603.66 323.49 600.11 317.35C598.11 313.89 599.35 310.49 600.11 307.26C603.59 292.2 607.11 277.16 611.11 262.26C612.168 257.806 613.894 253.537 616.23 249.6C618.89 245.48 623.94 242.96 628.75 241.26C641.98 236.6 655.75 234.79 669.75 234.12C674.047 233.842 678.291 233.019 682.38 231.67C686.38 230.42 688.38 226.99 688.83 222.95C689.29 219.09 683.2 214.95 678.63 216.27C666.63 219.81 654.1 219.56 642 222.14C637.09 223.14 632.25 224.61 626.09 226.19C656.71 183.07 686.7 140.83 716.66 98.6201C728.635 110.372 741.42 121.268 754.92 131.23C761.118 135.972 767.759 140.104 774.75 143.57C789.68 150.79 793.75 164.16 795.75 178.77C796.14 181.62 798.52 185.16 796.42 187.28C794.63 189.08 790.92 188.91 788.13 189.82C770.54 195.6 753.4 202.69 735.68 208.1C732.04 209.22 729.68 213.99 730.53 217.6C731.58 221.9 734.53 223.66 738.68 223.06C745.33 222.06 751.17 219.01 756.95 215.77C769.84 208.54 783.22 202.64 798.13 201.12C799.04 201.03 800.31 199.71 800.98 202.12C805.5 218.68 813.61 233.9 819.11 250.12C822.49 260.12 825.62 270.05 825.68 280.74C825.75 293.37 828.82 305.74 829.03 318.41C829.35 337.25 827.12 355.59 820.92 373.41C817.33 383.69 813.26 393.8 809.54 404.04C808.84 405.79 807.39 407.77 808.89 410Z" fill="#FED9CB"/>
<path d="M655.21 436.84C652.21 432.16 647.59 429.06 643.87 425.1L637 417C636.92 416.66 636.85 416.32 636.77 416C634.55 407.02 632.323 398.047 630.09 389.08C632.84 387.13 634.37 389.44 636.09 390.88C640.09 394.35 643.09 398.88 647.09 402.43C662.78 416.2 679.36 428.78 697.8 438.53C716.24 448.28 735.75 451.4 756.67 446.24C774.98 441.72 790.03 432.52 803.2 419.53C804.55 418.2 805.39 416.06 807.81 416.14C807.81 417.69 807.81 419.23 807.81 420.78C804.37 422.12 805.1 425.69 803.95 428.22C802.68 431.04 801.84 434.06 800.81 436.99C797.27 443.38 792.36 449.16 791.89 456.92C789.583 462.305 788.626 468.171 789.1 474.01C788.48 478.19 789.71 482.15 790.58 486.14C790.69 490.72 793.04 494.65 794.24 498.92C797.3 500.74 797.8 504.33 799.76 506.92C801.424 510.51 803.763 513.745 806.65 516.45C807.6 517.31 808.59 518.59 810.02 517.83C811.21 517.21 810.74 515.83 810.78 514.67C810.91 511.3 809.91 507.67 812.78 504.88C813.51 504.72 814.25 504.93 814.43 505.59C815.81 510.59 819.68 513.43 823.54 516.3C827.87 519.78 833.21 521.17 838.18 523.3C840.64 524.85 843.98 524.68 845.9 527.3C838.65 532.97 830.27 536.48 821.24 536.82C812.02 537.16 802.4 536.14 794.03 532.26C783.98 527.6 773.5 524.98 762.89 522.62C749.89 519.72 737.62 514.8 725.72 508.92C713.21 502.74 700.63 496.68 688.72 489.4C686.46 488.02 684.29 486.49 682.08 485.03C680.08 484.51 679.91 482.63 679.08 481.19C677.61 477.24 675.88 473.4 674.08 469.6C672.829 467.381 671.762 465.063 670.89 462.67C669.8 460.18 668.54 457.78 667.29 455.37C666.37 452.86 664.47 450.78 664.07 448.04C662.397 443.451 659.29 439.524 655.21 436.84Z" fill="#FED9CB"/>
<path d="M807.71 416.07C792.77 433.07 774.82 444.52 752.03 448.12C741.27 449.82 730.57 451.54 720.03 448.39C702.633 443.352 686.377 434.992 672.16 423.77C663.37 416.77 653.81 410.77 645.57 402.97C641.8 399.4 639.04 394.97 635.12 391.64C633.61 390.34 632.42 388.64 630.06 389.01C629.06 385.31 628.06 381.61 627.06 377.91C630.74 379.63 631.78 383.72 634.62 386.24C641.96 392.72 648.96 399.59 656.44 405.89C665.81 413.79 674.88 422.06 685.18 428.82C696.49 436.443 709.061 442.003 722.31 445.24C728.41 446.66 734.58 445.97 740.69 445.85C755.11 445.58 768.02 439.61 781.05 434.33C789.59 430.87 795.25 423.56 802.26 418.04C804.26 416.5 805.91 414.65 807.72 412.94C807.72 414 807.72 415 807.71 416.07Z" fill="#E8B6A3"/>
<path d="M713 89.6904C710.31 89.1104 709.67 87.4204 709 86.1104C700.7 69.5404 691.72 53.3104 684.49 36.2204C683.27 33.3404 682.55 30.2204 681.49 27.3204C680.91 25.7604 680.65 24.3204 682.33 23.4304C684.01 22.5404 685.33 23.4304 686.33 24.5104C689.51 27.8968 692.181 31.7267 694.26 35.8804C699.61 46.4004 704.19 57.4604 706.26 68.8804C707.55 76.1204 710.09 82.6204 713 89.6904Z" fill="#61422E"/>
<path d="M509 648.32C511.25 654.51 509.72 660.41 508.63 666.09C501.18 704.89 493.48 743.64 485.85 782.4C485.01 786.69 481.74 791.81 484.49 795.05C486.85 797.83 492.36 797.88 496.44 799.26C529.28 810.39 563.19 817.71 596.44 827.26C615.56 832.72 634.79 837.77 653.9 843.26C667.85 847.26 682.23 849.82 696.44 852.94C707.398 855.48 718.148 858.842 728.6 863C729.41 863.31 730.45 863.73 730.18 864.58C729.66 866.21 728.18 865.94 726.81 865.77C712.81 864.04 699.33 859.92 685.45 857.66C660.58 853.6 636.32 846.96 612.14 839.99C597 835.58 582 831 566.82 826.81C548.33 821.67 529.73 816.9 511.24 811.75C503.91 809.75 496.68 807.23 489.54 804.61C479.24 800.83 468.7 797.93 458.16 794.98C452.725 793.459 447.426 791.486 442.32 789.08C441.14 788.53 439.65 787.92 440.52 786.17C441.2 784.8 442.37 785.42 443.52 785.62C454.64 787.45 465.52 790.48 476.37 793.34C479.99 794.29 481.66 793.25 481.8 789.94C482.5 773.3 487.27 757.35 490.09 741.07C494.14 717.79 498.61 694.58 502.89 671.34C503.97 665.49 504.89 659.6 506.17 653.79C506.6 652 506.85 649.87 509 648.32Z" fill="#D3C48D"/>
<path d="M976.85 841.92C969.51 853.24 965.31 865.84 961.72 878.72C959.16 887.9 956.55 897.081 952.85 905.891C951.55 906.461 951.63 908.82 949.12 908.37C949.75 904.22 950.12 900.031 951.05 895.96C956.71 870.451 964.81 845.86 977.27 822.74C987.11 804.51 993.74 784.82 1001.99 765.87C1012.07 742.68 1018.44 718.33 1024.24 693.87C1026.14 686.143 1027.07 678.208 1027.01 670.25C1026.91 664.02 1028.22 657.771 1028.93 651.531C1029.08 650.261 1029.71 649.27 1031.1 649.21C1032.78 649.13 1032.8 650.45 1032.84 651.63C1033.34 668.3 1034.26 685.06 1030.45 701.43C1022.45 735.53 1011.26 768.55 995.45 799.84C989 812.521 984.28 826 977.6 838.58C977.206 839.657 976.954 840.779 976.85 841.92Z" fill="#D3C48E"/>
<path d="M615.94 504.94C607.94 497.13 598.76 491.1 588.94 485.94C590.94 482.62 594.21 483.53 597.03 483.82C619.379 486.076 641.409 490.798 662.72 497.9C673.72 501.61 684.35 506.6 692.95 514.9C696.6 519.77 698.12 525.54 699.53 531.28C700.44 535.02 696.05 538.74 691.74 537.66C689.09 536.99 686.49 537.17 683.89 536.85C679.81 534.24 677.72 529.72 673.71 526.85C663.94 519.85 652.66 516.44 641.59 512.57C633.176 509.591 624.614 507.044 615.94 504.94Z" fill="#CB869A"/>
<path d="M692.94 514.88C691.1 516.1 690.11 514.15 689.27 513.46C677.34 503.63 663.1 498.96 648.54 495.09C638.03 492.3 627.54 488.8 616.78 487.77C607.58 486.89 598.39 483.28 588.93 485.94C581.1 482.927 573.702 478.892 566.93 473.94C567.79 471.88 569.67 471.64 571.5 471.59C574.99 471.5 578.5 470.7 581.92 470.8C607.69 471.56 633.31 473.91 658.23 480.92C667.51 483.53 676.4 487.39 683.82 493.92C685.14 501.66 689.83 507.93 692.94 514.88Z" fill="#C58293"/>
<path d="M812.9 505C811.5 508.48 811.73 512.12 811.99 515.72C812.1 517.25 812.52 518.86 810.93 519.64C809.34 520.42 807.84 519.44 806.6 518.15C803.41 514.82 799.95 511.71 798.79 506.97C802.6 495.06 810.79 486.77 821.35 480.81C834.72 473.26 849.5 470.21 864.46 467.36C876.28 465.1 887.57 465.42 898.89 469.06C901.43 469.88 904.04 470.56 905.71 472.91C906.59 477.65 904.71 482.19 904.71 486.91C904.077 487.138 903.397 487.202 902.733 487.097C902.069 486.992 901.442 486.722 900.91 486.31C889.72 479.16 877.52 481.16 865.59 482.91C857.06 484.15 848.8 486.98 840.59 489.67C831.83 492.54 823.59 496.36 816.66 502.67C815.57 503.685 814.293 504.476 812.9 505Z" fill="#AA7477"/>
<path d="M683.77 493.94C681.93 494.23 680.68 493.07 679.29 492.17C664.95 482.87 648.76 479.44 632.17 476.84C616.383 474.329 600.456 472.796 584.48 472.25C578.7 472.07 572.63 472.2 566.88 473.97L552 466.84C552.49 463.72 555.19 463.84 557.33 463.34C574.24 459.56 591.42 459.96 608.53 460.87C622.47 461.62 636.43 463.15 649.97 466.87C660.74 469.8 671.2 473.64 679.97 480.99L682.07 484.99C682.19 488 684 490.77 683.77 493.94Z" fill="#BF808D"/>
<path d="M812.9 505C819.49 496.55 828.76 492.28 838.51 488.94C851 484.69 863.7 481 877 480C886.91 479.33 896.46 480.72 904.76 486.86C904.691 492.141 903.368 497.331 900.9 502C900.601 502.148 900.27 502.217 899.937 502.199C899.604 502.181 899.281 502.079 899 501.9C890.12 495.9 880.33 495.12 870.25 497.41C859.74 499.8 848.98 501.29 838.99 505.72C834.095 507.814 829.673 510.875 825.99 514.72C825.08 515.72 824.3 516.8 822.86 517.04C820.459 515.828 818.335 514.133 816.621 512.061C814.907 509.989 813.64 507.585 812.9 505Z" fill="#B1787E"/>
<path d="M679.91 481C672.91 477.7 665.99 474.18 658.91 471.17C648.91 466.97 638.18 465.61 627.59 464.17C611.16 461.88 594.59 461.63 578 462.04C570 462.24 562.33 464.25 554.5 465.39C553.62 465.52 552.84 466.39 552.01 466.92C547.4 465.56 542.84 464.08 538.84 461.3C538.48 458.3 540.93 457.84 542.78 457.04C549.88 453.96 557.56 452.87 565.08 452.04C591.78 449.04 618.43 449.56 644.78 455.45C654.729 457.547 664.113 461.752 672.3 467.78C673.04 468.415 673.939 468.837 674.9 469C677.116 472.75 678.802 476.788 679.91 481Z" fill="#BA7C87"/>
<path d="M822.84 517.05C828.32 507.74 837.61 503.78 847.2 501.27C855.787 498.861 864.504 496.944 873.31 495.53C883.51 494.09 892.76 495.3 900.9 501.97C899.63 509.5 894.9 515.74 892.96 522.97C890.88 523.31 890.57 521.58 889.96 520.31C886.77 513.37 881.8 510.81 874.18 511.65C861.12 513.1 848.83 516.65 837.82 524C832.61 522.21 827.05 521.07 822.84 517.05Z" fill="#B67B84"/>
<path d="M674.9 469C673.49 470.7 672.37 469.66 671.1 468.71C658.96 459.61 644.8 455.88 630.1 454.1C619.29 452.79 608.36 451.43 597.5 451.6C582.84 451.83 568.05 451.6 553.62 455.52C548.43 456.92 542.86 457.07 538.79 461.27C534.966 460.414 531.296 458.974 527.91 457C528.72 454.08 531.32 453.05 533.57 451.72C542.08 446.66 551.78 445.33 561.23 443.89C574.713 441.93 588.34 441.127 601.96 441.49C619.05 441.81 635.75 444.18 651.72 450.23C658.95 452.96 666.21 456.14 671.72 461.98L674.9 469Z" fill="#B47981"/>
<path d="M664 447.94C666.5 449.61 667 452.4 668 454.94C661.78 454.72 656.88 450.94 651.56 448.49C640.645 443.548 629.013 440.375 617.1 439.09C609.032 438.015 600.899 437.5 592.76 437.55C581.99 437.81 571.18 438.13 560.44 439.66C552.88 440.836 545.433 442.653 538.18 445.09C533.376 446.508 528.926 448.924 525.12 452.18C523.36 453.74 521.54 455.29 518.93 453.93C516.65 453.93 515.52 451.93 513.82 450.99C524.75 436.75 540.95 434.05 557.1 430.78C568.945 428.417 581.033 427.494 593.1 428.03C615.99 428.94 638.23 432.69 658.18 445.03C660.05 446.19 662.09 447 664 447.94Z" fill="#AB7578"/>
<path d="M905.71 472.94C895.92 469.12 885.84 466.05 875.27 467.11C866.77 467.96 858.37 470.04 849.97 471.8C837.74 474.37 826.09 478.47 815.89 485.96C809.34 490.77 804.63 497.13 800.76 504.19C800.151 505.166 799.483 506.105 798.76 507C796.39 504.75 795.64 501.59 794.16 498.85C797.48 494.36 800.23 489.49 803.96 485.27C813.96 473.91 826.9 467.68 841.16 463.73C852.95 460.46 864.87 457.85 877.16 457.97C887.16 458.07 896.93 459.42 905.65 464.9L905.71 472.94Z" fill="#A57171"/>
<path d="M675.93 839.84C680.15 828.09 687 819.43 697.67 814.04C710.75 807.44 724.55 802.74 738.67 798.8C753.24 794.72 767.09 788.73 780.74 782.33C797.862 774.267 814.552 765.315 830.74 755.51C836.74 751.91 842.6 748.21 848.54 744.51C849.6 743.86 850.44 742.57 852.04 743.14C852.3 744.72 851.04 745.14 850.18 745.72C826.65 761.69 803 777.41 778.07 791C764.38 798.45 749.52 803.33 734.64 808.08C718.11 813.36 701.21 818.02 686.98 828.79C684.691 830.698 682.725 832.964 681.16 835.5C680 837.22 679 839.08 675.93 839.84Z" fill="#D3C48E"/>
<path d="M780 703.38C772.56 709.54 763.76 713.52 755.33 718.05C740.27 726.14 725.52 734.87 709.71 741.53C695.41 747.53 680.44 750.89 665.11 752.95C645.11 755.64 625.21 759.11 606.11 766.18C602.75 767.43 599.43 769.86 594.8 768.18C608.74 759.38 623.61 754.44 638.89 751.02C653.39 747.78 668.2 745.94 682.77 743.02C700.28 739.45 716.39 731.78 732.77 724.94C748.75 718.28 764.44 711.08 780 703.38Z" fill="#D3C48E"/>
<path d="M519 453.94C519.739 454.009 520.485 453.906 521.178 453.641C521.872 453.376 522.495 452.955 523 452.41C532.38 443.41 544.62 441.54 556.61 438.9C566.56 436.7 576.72 437.3 586.75 436.14C595.29 435.14 603.88 437.05 612.46 437.26C620.27 437.46 627.81 439.21 635.31 441.04C640.139 442.225 644.856 443.824 649.41 445.82C655.74 448.59 661.84 451.88 668.04 454.95C669.91 456.95 670.68 459.52 671.76 461.95C666.89 460.26 662.76 457.12 658.27 454.73C649.27 449.92 639.48 447.73 629.84 445.31C622.84 443.57 615.46 443.38 608.22 443.03C592.671 442.14 577.072 442.857 561.67 445.17C549.87 447.04 537.67 448.81 527.92 456.97C524.91 456 521.64 455.86 519 453.94Z" fill="#AF777C"/>
<path d="M615.94 504.94C623.44 503.48 629.73 507.82 636.51 509.52C644.833 511.713 652.955 514.607 660.79 518.17C670.04 522.27 679.18 526.92 683.88 536.83C673.62 542.83 664.39 540.53 654.75 534.54C640.81 525.9 627.56 516.53 615.94 504.94Z" fill="#D1899F"/>
<path d="M837.84 524C843.04 517.21 851.02 515.46 858.47 513.12C863.91 511.4 869.74 510.89 875.42 510.01C882.01 509.01 888.91 513.57 891.12 520.12C891.622 521.156 892.254 522.123 893 523C888 529.23 880.76 530.31 873.63 530.8C864.23 531.45 854.99 529.6 845.89 527.19C843.11 526.34 840.13 526.06 837.84 524Z" fill="#BA7D88"/>
<path d="M783.65 862.66C781.96 860.98 778.22 863.3 777.46 860.66C777.12 859.48 780.13 857.02 781.97 855.6C789.08 850.08 797.73 847.81 806.06 845.19C827.36 838.51 849.53 835.58 871.34 831.11C874.34 830.49 877.6 831.11 880.7 830.11C881.025 830.003 881.37 829.973 881.708 830.022C882.046 830.07 882.368 830.196 882.65 830.389C882.932 830.583 883.165 830.839 883.331 831.137C883.498 831.436 883.593 831.769 883.61 832.11C883.85 833.8 882.54 833.87 881.34 833.96C867.85 834.96 855.04 839.09 842.34 843.12C824.34 848.81 806.01 853.46 788.81 861.42C787.131 861.989 785.404 862.404 783.65 862.66Z" fill="#D3C48E"/>
<path d="M618.68 778.74C597.13 785.63 576.09 793.15 561 811.51C559.8 807.9 561.12 805.67 565.69 800.94C576.94 789.28 591.42 784.44 606.6 780.94C610.59 780.07 614.65 779.48 618.68 778.74Z" fill="#D4C58E"/>
<path d="M1083.85 1001.85L1098.26 1003.2C1098.26 1003.67 1098.17 1004.14 1098.13 1004.61C1092.63 1004.94 1087.13 1005.78 1081.78 1002.91C1082.01 1002.57 1082.32 1002.3 1082.68 1002.11C1083.04 1001.93 1083.44 1001.84 1083.85 1001.85Z" fill="#E8B7A4"/>
<path d="M919.17 861.19C913.99 862.42 908.82 863.7 903.62 864.86C902.73 865.05 901.41 865.09 901.3 863.73C901.294 863.521 901.334 863.312 901.416 863.119C901.497 862.926 901.62 862.752 901.774 862.61C901.928 862.468 902.112 862.361 902.311 862.295C902.51 862.23 902.721 862.208 902.93 862.23C908.36 862.5 913.5 860.48 918.83 859.98L919.17 861.19Z" fill="#D7C992"/>
<path d="M951.75 1069.54C952.26 1066.4 950.49 1064.27 948.94 1061.98C944.64 1055.67 940.32 1049.35 937.1 1042.4C933.56 1034.74 927.67 1029.31 920.77 1024.85C907.67 1016.37 895.6 1006.51 883.21 997.08C882.31 996.39 880.62 995.81 881.45 994.61C882.45 993.11 883.75 994.54 884.82 995.27C891 999.45 897.043 1003.81 902.95 1008.36C908.578 1012.73 914.426 1016.81 920.47 1020.58C930.033 1026.29 937.779 1034.59 942.81 1044.53C945.24 1049.38 948.81 1053.68 951.69 1058.29C954 1061.93 955 1065.69 951.75 1069.54Z" fill="#E8B7A4"/>
<path d="M1090 1087.32C1085.79 1096.19 1080.19 1104.34 1073.43 1111.46C1064.88 1120.53 1056.43 1129.66 1049.36 1139.89C1043.36 1148.45 1035.36 1153.11 1025.06 1154.38C1012.44 1155.93 999.94 1158.71 987.06 1157.73C989.95 1155.9 995.63 1155.11 1003.37 1154.83C1012.78 1154.33 1022.11 1152.89 1031.23 1150.53C1038.83 1148.7 1043.85 1143.2 1047.9 1137.1C1056.19 1124.58 1067.6 1114.72 1076.47 1102.73C1079.53 1098.6 1082.58 1094.47 1085.58 1090.31C1086.56 1089 1087.07 1087.28 1090 1087.32Z" fill="#E8B7A4"/>
<path d="M987.2 1052.22C987.15 1051.69 986.89 1051.1 987.09 1050.77C992.49 1041.56 989.02 1033.65 983.82 1025.77C972.82 1009.01 961.94 992.14 951.08 975.28C949.08 972.11 947.28 968.75 943.39 967.15C947.72 965.37 949.91 968.04 951.78 970.85C961.887 986.037 971.937 1001.26 981.93 1016.53C986.36 1023.3 991.51 1029.65 993.1 1038C994.46 1045.11 993.67 1047.73 987.2 1052.22Z" fill="#E8B6A4"/>
<path d="M926.37 985.54C930.03 986.97 931.94 990.15 933.83 993.06C939.218 1001.18 945.527 1008.66 952.63 1015.33C961.214 1023.34 969.321 1031.85 976.91 1040.81C982.91 1048.08 981.72 1055.5 975.59 1060.65C974.03 1061.97 974.03 1061.97 970.78 1062.11C970.17 1060.47 971.97 1060.44 972.52 1059.6C978.36 1050.68 978.52 1047.23 970.4 1038.16C962.09 1028.92 952.95 1020.42 944.1 1011.66C936.49 1004.13 932.12 994.42 926.37 985.54Z" fill="#E8B7A4"/>
<path d="M1152.82 1104.87C1150.66 1112.44 1145.88 1118.98 1139.34 1123.35C1132.79 1127.71 1124.9 1129.59 1117.09 1128.67C1131.45 1124.41 1145 1119 1152.82 1104.87Z" fill="#E8B7A4"/>
<path d="M1109.77 1117.87C1111.7 1111.55 1116.69 1108.87 1119.85 1104.75C1124.59 1098.6 1129.71 1092.75 1134.19 1086.34C1135.11 1085.04 1136.36 1083 1138.07 1084.46C1139.97 1086.09 1137.27 1086.7 1136.59 1087.79C1131.06 1096.65 1124.75 1104.99 1117.74 1112.73C1115.6 1115.1 1113.09 1116.07 1109.77 1117.87Z" fill="#E8B7A4"/>
<path d="M1005.92 1020.79L1007.73 1021.01C1004.73 1028.25 1004.9 1036.18 1002.87 1043.64C1001.33 1049.3 999.64 1054.74 993.17 1057.06C992.722 1056.43 992.518 1055.66 992.595 1054.89C992.672 1054.12 993.026 1053.41 993.59 1052.88C999.59 1047.01 999.81 1038.94 1001.85 1031.57C1002.88 1027.86 1002.51 1023.61 1005.92 1020.79Z" fill="#E8B7A4"/>
<path d="M1038.7 1078.51C1040.04 1072.9 1043.49 1068.84 1044.02 1063.58C1044.57 1058.04 1045.81 1052.58 1045.87 1046.95C1045.87 1045.95 1046.07 1044.8 1047.24 1044.62C1047.45 1044.61 1047.66 1044.64 1047.85 1044.72C1048.05 1044.8 1048.22 1044.92 1048.37 1045.07C1048.51 1045.23 1048.61 1045.41 1048.68 1045.61C1048.74 1045.81 1048.76 1046.02 1048.73 1046.23C1047.73 1057.23 1048.9 1068.83 1040.33 1077.82C1040.13 1078 1039.75 1078.08 1038.7 1078.51Z" fill="#E8B7A4"/>
<path d="M878.27 1034C870.27 1029.92 862.12 1026 855.27 1020C864 1023 871.46 1027.94 878.27 1034Z" fill="#E9B8A5"/>
<path d="M427.57 1894.94C419.24 1903.58 410.23 1911.22 397.1 1910.74C394.1 1910.63 389.47 1910.55 389.45 1907.09C389.45 1903.39 393.94 1905.25 396.45 1904.9C407.305 1903.33 417.823 1899.97 427.57 1894.94Z" fill="#E1DDCE"/>
<path d="M733.87 2150C733.4 2143.92 730.7 2138.66 727.76 2133.61C722.33 2124.26 715.83 2115.73 707.01 2109.21C704.83 2107.6 702.55 2106.21 699.78 2106.41C698.09 2106.51 697.07 2105.96 697.13 2104.35C697.2 2102.35 698.95 2102.88 700.13 2102.77C704.98 2102.34 708.66 2105.01 712.37 2107.52C722.85 2114.57 735.47 2138.71 733.87 2150Z" fill="#E1DDCE"/>
<path d="M786.9 367C771.44 382.85 754.02 394.76 730.66 393.94C716.83 393.45 704.53 387.94 692.78 381.07C693.187 380.648 693.698 380.341 694.262 380.18C694.825 380.018 695.421 380.008 695.99 380.15C704.23 381.41 712.23 379.8 720.11 377.85C735.91 373.94 751.97 371.6 768.04 369.27C772.47 368.63 776.84 367.6 781.22 366.67C783.12 366.24 785.09 365.41 786.9 367Z" fill="#EAA190"/>
<path d="M688.88 379C687.58 377.58 686.6 375.82 684.23 375.75C683.05 375.75 682.78 374.52 683.02 373.45C683.042 373.198 683.128 372.955 683.271 372.746C683.414 372.537 683.609 372.368 683.837 372.257C684.064 372.145 684.316 372.094 684.569 372.109C684.822 372.123 685.067 372.203 685.28 372.34C691.22 375.52 696.28 372.22 701.09 369.8C710.24 365.24 719.64 360.8 729.9 362.27C736.66 363.27 742.04 361.42 747.9 359.19C755.98 356.19 764.4 356.19 772.77 358.47C777.71 359.786 782.756 360.666 787.85 361.1C786.99 364.69 783.73 364.57 781.15 365.2C769.52 368.04 757.71 369.97 745.87 371.73C738.946 372.691 732.084 374.057 725.32 375.82C713.39 379.06 701.29 380.77 688.88 379Z" fill="#EAA190"/>
<path d="M673 253.76C678.94 253.81 683.43 257.05 687.68 260.65C688.87 261.65 690.37 263.27 687.19 263.87C684.37 263.4 682.01 261.8 679.45 260.68C677.13 259.68 675.45 259.55 674.63 262.6C674.236 264.04 673.504 265.366 672.496 266.467C671.487 267.568 670.23 268.412 668.83 268.93C663.33 271.17 657.83 272.86 651.93 270.17C651.269 270.239 650.601 270.129 649.996 269.853C649.391 269.577 648.871 269.145 648.49 268.6C647.919 267.874 647.09 267.396 646.175 267.266C645.261 267.136 644.331 267.363 643.58 267.9C640.22 269.9 636.45 270.23 632.75 270.9C631.64 270.67 630.2 271.9 629.53 270.73C629.2 270.14 629.91 268.56 630.58 267.84C634.83 263.23 639.64 259.41 645.88 257.84C646.052 258.117 646.123 258.444 646.081 258.766C646.039 259.089 645.887 259.387 645.65 259.61C646.02 259.73 646.18 259.39 646.42 259.25C654.63 254.29 663.71 253.52 673 253.76Z" fill="black"/>
<path d="M688.88 379C689.11 376.85 690.74 376.67 692.19 377.08C703.74 380.35 714.67 376.73 725.69 374.18C739.52 370.97 753.64 369.43 767.55 366.78C774.4 365.47 781.72 365.12 787.89 361.1H792.89C791.251 363.399 789.224 365.396 786.9 367C775.42 370.21 763.54 371.5 751.84 373.21C736.75 375.41 722.13 379.6 707.12 381.87C702.333 382.423 697.486 382.152 692.79 381.07C691.18 380.94 689.67 380.65 688.88 379Z" fill="#D98C7A"/>
<path d="M796 231.93C796.88 232.29 797.79 232.61 798.65 233.02C800.13 233.74 802.11 234.56 801.65 236.42C801.04 238.8 798.72 237.87 796.98 237.83C791.17 235.1 786.38 235.72 782.98 241.83C782.17 243.29 780.13 243.26 778.68 243.95C775.08 244.57 772.2 248.95 767.92 245.95C767 246.033 766.078 245.807 765.301 245.307C764.524 244.807 763.936 244.062 763.63 243.19C762.29 239.24 760.56 241.13 758.71 242.54C755.71 244.87 753.51 248.02 750.97 250.82C749.743 252.161 748.214 253.189 746.51 253.82C745.66 253.35 744.51 255.11 744.03 253.82C743.34 252.11 744.16 250.65 745.74 249.7C748.19 248.2 749.74 245.7 751.62 243.7C761.72 233.23 774.08 228.91 788.42 229.61C791.086 229.822 793.673 230.614 796 231.93Z" fill="black"/>
<path d="M796 231.93C786 230.41 776.45 230.58 766.81 234.66C759.25 237.87 754.03 243.39 748.55 248.91C747.77 249.69 747.4 251.83 745.77 249.73C749.16 241.73 754.09 235.12 761.84 230.87C770.92 227.31 780.3 226.82 789.84 228.14C792.5 228.45 794.7 229.45 796 231.93Z" fill="#04060D"/>
<path d="M712.38 335.73C714.08 332.22 716.96 332.41 719.38 333.36C730.38 337.77 740.38 335.76 750 329.47C750.933 328.769 752.026 328.312 753.18 328.14C754.78 328.07 757.31 326.84 757.66 329.56C757.97 332.03 755.66 331.36 754.13 331.61C752.679 331.947 751.315 332.588 750.13 333.49C741.36 339.36 731.96 341.11 721.86 337.75C718.811 336.633 715.619 335.953 712.38 335.73Z" fill="#E8B7A4"/>
<path d="M746.54 253.87C751.88 248.44 756.01 241.73 763.59 237.87C763.2 241.68 764.92 244.25 767.95 246.01C767.18 248.9 764.43 248.54 762.43 249.19C757.18 250.88 751.84 252.32 746.54 253.87Z" fill="#FEFEFE"/>
<path d="M668.82 268.93C670.89 265.93 674.42 263.82 673.95 259.41C673.74 257.55 675.3 257.72 676.3 258.15C680.08 259.75 684.3 260.64 687.18 263.87C681.49 267.13 675.22 268.28 668.82 268.93Z" fill="#FEFEFE"/>
<path d="M718.39 339.45C710.96 342.79 707.18 342.21 702.84 337.45C699.12 333.32 701.26 324.98 706.51 323.32C706.811 323.237 707.127 323.218 707.435 323.267C707.744 323.315 708.039 323.429 708.3 323.6C708.86 324.09 708.36 324.74 708.03 325.32C702.03 335.73 702.08 335.72 714.11 338.25C715.39 338.48 716.64 338.93 718.39 339.45Z" fill="#E9B7A4"/>
<path d="M673 253.76C669.21 256.29 664.73 255.08 660.63 255.7C654.63 256.61 649.38 259.05 643.44 261.87C644.44 260.26 645.14 259.03 645.88 257.81C652.88 252.81 660.8 251.66 669.12 251.96C669.863 251.932 670.602 252.08 671.277 252.393C671.951 252.706 672.542 253.175 673 253.76Z" fill="#04060D"/>
<path d="M789.86 228.14C787.59 229.77 785 228.96 782.59 228.92C776.24 228.81 769.99 229.22 763.98 231.45C763.619 231.657 763.191 231.711 762.79 231.603C762.389 231.494 762.047 231.231 761.84 230.87C769.03 225.53 777.33 224.78 785.84 224.98C788.07 225 788.56 227.06 789.86 228.14Z" fill="#020202"/>
<path d="M761.48 333.55C765.27 326.95 765.03 320.94 760.07 315.23C759.51 314.58 758.65 313.47 759.48 312.57C760.54 311.42 761.69 312.27 762.48 313.12C766.01 317 768.36 321.3 768.12 326.85C767.91 331.12 764.54 331.93 761.48 333.55Z" fill="#E8B7A4"/>
<path d="M778.71 244C781.52 241.44 785.31 239.78 786.17 235.45C786.6 233.3 788.58 233.64 789.76 234.18C792.21 235.29 795.02 235.78 796.97 237.88C791.79 242.58 785.12 242.86 778.71 244Z" fill="#FDFDFD"/>
<path d="M632.74 270.91C637.04 269.16 641.39 267.52 645.61 265.62C646.93 265.02 647.33 264.77 648.16 266.3C648.99 267.83 650.63 268.9 651.92 270.17C649.51 272.63 646.69 270.95 644.04 270.96C640.27 271 636.51 270.93 632.74 270.91Z" fill="#FEFEFE"/>
<path d="M725.72 236.57C728.93 242.01 728.97 248.22 730.37 254.1C727.8 248.52 725.71 242.82 725.72 236.57Z" fill="#EAB9A7"/>
<path d="M676.76 290.49C676.56 291.78 675.61 291.98 674.58 291.9C673.37 291.79 672.21 291.33 672.3 289.9C672.39 288.47 673.44 287.98 674.73 288.15C675.303 288.209 675.832 288.483 676.209 288.918C676.586 289.353 676.783 289.915 676.76 290.49Z" fill="#E9B7A4"/>
<path d="M704.66 290.27C704.06 291.27 703.96 292.84 702.4 292.5C701.926 292.338 701.523 292.015 701.26 291.588C700.997 291.162 700.891 290.657 700.96 290.16C700.96 289.1 701.21 288.11 702.53 288.16C702.811 288.15 703.09 288.198 703.352 288.301C703.613 288.403 703.851 288.558 704.05 288.755C704.25 288.953 704.407 289.189 704.512 289.45C704.616 289.71 704.667 289.989 704.66 290.27Z" fill="#E9B7A4"/>
<path d="M704.34 178.12C705.65 178.25 705.93 179.12 705.84 180.22C705.75 181.32 705.41 182.62 703.84 182.22C702.84 182 701.94 181.44 702.09 180.22C702.142 179.655 702.399 179.128 702.814 178.741C703.229 178.353 703.772 178.133 704.34 178.12Z" fill="#EAB9A6"/>
<path d="M692.27 203.89C691.16 203.63 690.21 203.16 690.27 201.99C690.265 201.698 690.329 201.409 690.455 201.147C690.582 200.884 690.769 200.654 691 200.476C691.231 200.299 691.501 200.177 691.787 200.122C692.074 200.067 692.369 200.08 692.65 200.16C693.147 200.248 693.592 200.521 693.896 200.923C694.2 201.326 694.341 201.828 694.29 202.33C694.29 203.53 693.26 203.84 692.27 203.89Z" fill="#E9B8A5"/>
<path d="M701.64 270.12C701.21 271.12 701.14 272.56 699.64 272.54C698.52 272.54 697.99 271.54 697.98 270.47C697.944 269.971 698.096 269.476 698.407 269.083C698.718 268.691 699.165 268.429 699.66 268.35C700.88 268.18 701.45 269 701.64 270.12Z" fill="#EAB9A7"/>
<path d="M772.63 278.11C772.15 279.33 771.94 280.63 770.55 280.82C769.46 280.97 768.45 280.46 768.55 279.24C768.54 278.945 768.591 278.652 768.699 278.379C768.807 278.105 768.97 277.856 769.179 277.648C769.387 277.44 769.635 277.277 769.909 277.169C770.183 277.061 770.476 277.01 770.77 277.02C771.157 276.969 771.55 277.049 771.886 277.246C772.223 277.444 772.485 277.747 772.63 278.11Z" fill="#EAB9A7"/>
<path d="M789.28 291.19C789.21 292.48 788.34 292.89 787.28 292.86C786.787 292.878 786.305 292.707 785.933 292.382C785.562 292.056 785.328 291.602 785.28 291.11C785.17 289.95 785.99 289.31 787.05 289.11C788.54 288.91 788.92 290.08 789.28 291.19Z" fill="#EAB9A7"/>
<path d="M721.73 186.09C721.777 186.331 721.766 186.579 721.697 186.814C721.629 187.049 721.506 187.264 721.338 187.442C721.169 187.62 720.961 187.755 720.73 187.837C720.5 187.918 720.253 187.943 720.01 187.91C718.94 187.91 718.01 187.61 718.08 186.34C718.06 186.097 718.087 185.852 718.162 185.62C718.236 185.388 718.356 185.172 718.514 184.987C718.672 184.801 718.865 184.648 719.082 184.537C719.3 184.426 719.537 184.359 719.78 184.34C720.94 184.24 721.46 185.07 721.73 186.09Z" fill="#EAB9A7"/>
<path d="M681.73 307.07C681.73 308.23 681.26 308.8 680.32 308.81C679.828 308.858 679.337 308.713 678.95 308.405C678.564 308.097 678.313 307.65 678.25 307.16C678.203 306.919 678.213 306.671 678.28 306.434C678.347 306.198 678.469 305.981 678.635 305.801C678.802 305.621 679.009 305.482 679.239 305.397C679.469 305.312 679.716 305.282 679.96 305.31C680.422 305.327 680.861 305.518 681.189 305.844C681.517 306.17 681.71 306.608 681.73 307.07Z" fill="#E9B7A5"/>
<path d="M710.89 219.88C709.7 219.88 708.79 219.67 708.63 218.73C708.4 217.38 709.53 217.14 710.51 217.06C711.29 216.99 712.33 216.91 712.51 218.06C712.61 219.29 711.46 219.51 710.89 219.88Z" fill="#EAB9A6"/>
<path d="M748.31 294.14C748.339 294.339 748.323 294.542 748.263 294.734C748.203 294.926 748.1 295.102 747.963 295.249C747.826 295.396 747.657 295.51 747.47 295.583C747.282 295.656 747.081 295.686 746.88 295.67C746.47 295.675 746.073 295.525 745.767 295.251C745.462 294.977 745.27 294.599 745.23 294.19C745.185 293.991 745.181 293.785 745.218 293.584C745.255 293.383 745.332 293.191 745.445 293.021C745.559 292.851 745.705 292.706 745.876 292.594C746.047 292.482 746.239 292.406 746.44 292.37C747.73 292.1 748 293.25 748.31 294.14Z" fill="#E9B8A5"/>
<path d="M722.74 203.8C722.5 204.62 722.19 205.49 721.16 205.27C720.13 205.05 719.96 204.19 720.05 203.27C720.057 203.104 720.098 202.941 720.171 202.791C720.243 202.641 720.345 202.508 720.47 202.398C720.595 202.289 720.741 202.206 720.899 202.155C721.058 202.103 721.224 202.085 721.39 202.1C721.602 202.09 721.812 202.131 722.005 202.219C722.198 202.307 722.367 202.439 722.499 202.605C722.631 202.771 722.721 202.966 722.763 203.173C722.805 203.381 722.797 203.596 722.74 203.8Z" fill="#EABAA7"/>
<path d="M748.44 278.83C748.232 278.84 748.024 278.802 747.834 278.718C747.643 278.634 747.474 278.508 747.34 278.348C747.207 278.188 747.112 277.999 747.063 277.797C747.015 277.594 747.013 277.383 747.06 277.18C747.16 276.3 747.6 275.48 748.58 275.71C749.06 275.81 749.58 276.57 749.71 277.12C750 278.06 749.42 278.67 748.44 278.83Z" fill="#EABAA8"/>
<path d="M804.13 280.41C804.13 279.15 804.73 278.51 805.58 278.35C806.43 278.19 806.76 278.84 806.77 279.55C806.825 279.965 806.715 280.385 806.465 280.722C806.215 281.058 805.844 281.283 805.43 281.35C805 281.39 804.47 280.68 804.13 280.41Z" fill="#E9B8A6"/>
<path d="M661.69 322.85C661.35 323.53 660.85 323.85 660.15 323.39C659.6 323.03 659.03 322.54 659.35 321.8C659.407 321.647 659.498 321.508 659.615 321.393C659.732 321.279 659.872 321.191 660.027 321.137C660.181 321.082 660.346 321.063 660.509 321.079C660.672 321.095 660.829 321.146 660.97 321.23C661.274 321.357 661.518 321.595 661.652 321.897C661.786 322.198 661.8 322.539 661.69 322.85Z" fill="#E9B8A6"/>
<path d="M698.46 214.21L696.96 215.59C696.7 215.28 696.18 214.91 696.24 214.69C696.306 214.478 696.419 214.284 696.572 214.123C696.724 213.962 696.912 213.837 697.12 213.76C697.44 213.66 697.89 214 698.46 214.21Z" fill="#E9B8A6"/>
<path d="M688.85 33.5801C695.45 43.1501 698.85 54.1501 701.96 65.2801L687.62 34.2801L688.85 33.5801Z" fill="#7B5A45"/>
</g>
<defs>
<clipPath id="clip0">
<rect width="1501.78" height="2232.78" fill="white"/>
</clipPath>
</defs>
</svg>
