<svg width="30" height="26" viewBox="0 0 30 26" fill="none" xmlns="http://www.w3.org/2000/svg">
<path d="M29.5229 3.42568C28.8563 3.72125 28.1644 3.95443 27.4544 4.12325C28.2367 3.37982 28.8249 2.44995 29.1568 1.41205C29.2515 1.11575 28.9297 0.859529 28.6621 1.01818C27.6744 1.60405 26.6104 2.04357 25.4998 2.32466C25.4353 2.34097 25.3688 2.34923 25.3021 2.34923C25.0998 2.34923 24.9031 2.27412 24.7484 2.13778C23.5667 1.09629 22.0469 0.522705 20.469 0.522705C19.7862 0.522705 19.0968 0.629128 18.42 0.839049C16.3228 1.48951 14.7047 3.21942 14.197 5.35373C14.0065 6.15428 13.9549 6.95557 14.0436 7.73527C14.0538 7.82487 14.0114 7.88741 13.9853 7.91674C13.9394 7.96816 13.8744 7.99764 13.8069 7.99764C13.7994 7.99764 13.7916 7.99727 13.7839 7.99654C9.19333 7.57004 5.05372 5.35841 2.12763 1.76914C1.97842 1.58606 1.69229 1.60851 1.57335 1.81251C1.00035 2.79555 0.69754 3.91991 0.69754 5.06401C0.69754 6.8174 1.40198 8.46977 2.62559 9.67437C2.11103 9.55236 1.613 9.36022 1.15037 9.10327C0.926551 8.97892 0.651167 9.13874 0.648022 9.39474C0.615985 11.9995 2.14102 14.3173 4.42557 15.3609C4.37956 15.362 4.33355 15.3626 4.28747 15.3626C3.92534 15.3626 3.55868 15.3276 3.19779 15.2586C2.94574 15.2105 2.73399 15.4496 2.81225 15.694C3.55378 18.009 5.54707 19.7154 7.93241 20.1029C5.95272 21.4318 3.64733 22.1328 1.24787 22.1328L0.499834 22.1324C0.26936 22.1324 0.074434 22.2826 0.0157002 22.5059C-0.042156 22.7257 0.0644134 22.9577 0.260949 23.072C2.96476 24.6455 6.04883 25.4771 9.18111 25.4771C11.9229 25.4771 14.4876 24.933 16.804 23.86C18.9276 22.8763 20.8041 21.4702 22.3815 19.6806C23.851 18.0135 25.0001 16.089 25.7967 13.9607C26.5562 11.9319 26.9576 9.76719 26.9576 7.70045V7.602C26.9575 7.27015 27.1076 6.95791 27.3695 6.74535C28.3631 5.93858 29.2284 4.98889 29.9412 3.92269C30.1294 3.64116 29.8325 3.28832 29.5229 3.42568Z" fill="white"/>
</svg>
