<svg width="25" height="24" viewBox="0 0 25 24" fill="none" xmlns="http://www.w3.org/2000/svg">
<path d="M22.8984 1.62914L22.6184 1.35804C21.7169 0.488333 20.4961 0 19.2234 0C17.9508 0 16.73 0.488333 15.8284 1.35804L11.4784 5.56973C11.2922 5.75113 11.1877 5.99652 11.1877 6.25231C11.1877 6.50809 11.2922 6.75349 11.4784 6.93489C11.5714 7.02564 11.682 7.09767 11.8039 7.14682C11.9257 7.19598 12.0564 7.22128 12.1884 7.22128C12.3205 7.22128 12.4512 7.19598 12.573 7.14682C12.6949 7.09767 12.8055 7.02564 12.8984 6.93489L17.2384 2.73289C17.4991 2.47527 17.8103 2.27061 18.1537 2.13089C18.4972 1.99117 18.8659 1.91921 19.2384 1.91921C19.611 1.91921 19.9797 1.99117 20.3231 2.13089C20.6666 2.27061 20.9777 2.47527 21.2384 2.73289L21.5184 3.00399C21.7833 3.25707 21.9936 3.55857 22.1371 3.89098C22.2807 4.2234 22.3546 4.5801 22.3546 4.94039C22.3546 5.30069 22.2807 5.65739 22.1371 5.98981C21.9936 6.32222 21.7833 6.62372 21.5184 6.8768L15.5484 12.5892C15.0116 13.0909 14.2946 13.3712 13.5484 13.3712C12.8023 13.3712 12.0853 13.0909 11.5484 12.5892L11.2684 12.3181C11.1289 12.1794 11.0049 12.0269 10.8984 11.863C10.7539 11.6473 10.5268 11.4961 10.267 11.4425C10.0073 11.3889 9.73623 11.4375 9.51344 11.5774C9.29066 11.7174 9.13442 11.9373 9.0791 12.1888C9.02378 12.4402 9.0739 12.7027 9.21844 12.9184C9.40327 13.1945 9.6178 13.4509 9.85844 13.6833L10.1384 13.9544C10.5835 14.3873 11.1126 14.7309 11.6952 14.9653C12.2778 15.1998 12.9025 15.3204 13.5334 15.3204C14.1644 15.3204 14.7891 15.1998 15.3717 14.9653C15.9543 14.7309 16.4834 14.3873 16.9284 13.9544L22.8684 8.20324C23.7707 7.33421 24.2805 6.15439 24.2861 4.92219C24.2917 3.68999 23.7927 2.50585 22.8984 1.62914Z" fill="white"/>
<path d="M11.4685 16.5299L7.05854 20.7997C6.52411 21.3059 5.80619 21.5893 5.05854 21.5893C4.3109 21.5893 3.59298 21.3059 3.05854 20.7997L2.77854 20.5286C2.51246 20.2762 2.30108 19.9749 2.15677 19.6424C2.01246 19.3099 1.93813 18.9528 1.93813 18.5922C1.93813 18.2315 2.01246 17.8745 2.15677 17.542C2.30108 17.2095 2.51246 16.9082 2.77854 16.6558L8.70854 10.9047C8.97062 10.6494 9.28224 10.4468 9.62548 10.3086C9.96871 10.1704 10.3368 10.0992 10.7085 10.0992C11.0803 10.0992 11.4484 10.1704 11.7916 10.3086C12.1348 10.4468 12.4465 10.6494 12.7085 10.9047L12.9885 11.1758C13.1193 11.3089 13.2396 11.4513 13.3485 11.6018C13.4936 11.8156 13.7202 11.9652 13.9787 12.0178C14.2373 12.0704 14.5069 12.0218 14.7285 11.8826C14.8393 11.813 14.9347 11.7229 15.0093 11.6174C15.0838 11.512 15.1361 11.3933 15.1631 11.2681C15.19 11.143 15.1911 11.014 15.1663 10.8885C15.1415 10.7629 15.0913 10.6434 15.0185 10.5368C14.8371 10.2756 14.6294 10.0323 14.3985 9.81062L14.1485 9.57825C13.247 8.70855 12.0262 8.22021 10.7535 8.22021C9.48088 8.22021 8.26009 8.70855 7.35854 9.57825L1.39854 15.3293C0.502697 16.2035 0 17.385 0 18.6164C0 19.8478 0.502697 21.0293 1.39854 21.9034L1.67854 22.1745C2.58137 23.0419 3.80168 23.5286 5.07354 23.5286C6.3454 23.5286 7.56572 23.0419 8.46854 22.1745L12.8885 17.8951C13.0748 17.7137 13.1793 17.4683 13.1793 17.2125C13.1793 16.9567 13.0748 16.7113 12.8885 16.5299C12.7956 16.4392 12.685 16.3671 12.5631 16.318C12.4413 16.2688 12.3106 16.2435 12.1785 16.2435C12.0465 16.2435 11.9158 16.2688 11.794 16.318C11.6721 16.3671 11.5615 16.4392 11.4685 16.5299Z" fill="white"/>
</svg>
