<svg width="36" height="23" viewBox="0 0 36 23" fill="none" xmlns="http://www.w3.org/2000/svg">
<path d="M-0.00065331 11.6C-0.000653286 11.8777 0.167289 12.2464 0.337688 12.4253L9.93772 22.6257C10.3859 23.0891 11.1121 23.1428 11.6346 22.6725C12.1018 22.2521 12.1134 21.4321 11.6814 20.9756L3.97515 12.8002L34.8 12.8002C35.4627 12.8002 36 12.263 36 11.6002C36 10.9374 35.4627 10.4001 34.8 10.4001L3.97515 10.4001L11.6814 2.22483C12.1134 1.76834 12.0827 0.96854 11.6346 0.527951C11.1615 0.0628207 10.3791 0.104224 9.93771 0.574753L0.337687 10.7751C0.0556211 11.0517 0.0040807 11.3182 -0.00065331 11.6Z" fill="white"/>
</svg>
