<svg width="16" height="12" viewBox="0 0 16 12" fill="none" xmlns="http://www.w3.org/2000/svg">
<path d="M14.3391 7.39278e-10H1.65579C1.21886 -1.30467e-05 0.799626 0.172678 0.489471 0.480437C0.179315 0.788196 0.00337662 1.20607 0 1.64299V10.3442C0 10.7834 0.174449 11.2045 0.48497 11.515C0.795491 11.8256 1.21665 12 1.65579 12H14.3391C14.7782 12 15.1994 11.8256 15.5099 11.515C15.8204 11.2045 15.9949 10.7834 15.9949 10.3442V1.64299C15.9915 1.20607 15.8156 0.788196 15.5054 0.480437C15.1953 0.172678 14.776 -1.30467e-05 14.3391 7.39278e-10ZM1.65579 0.639795H14.3391C14.6106 0.639795 14.871 0.747646 15.0629 0.939622C15.2549 1.1316 15.3628 1.39197 15.3628 1.66347V7.73129L10.8458 4.71401C10.7932 4.6788 10.7313 4.66001 10.6679 4.66001C10.6046 4.66001 10.5427 4.6788 10.4901 4.71401L6.9968 7.04287L5.5048 6.0499C5.45216 6.01469 5.39026 5.9959 5.32693 5.9959C5.26361 5.9959 5.20171 6.01469 5.14907 6.0499L0.639795 9.06462V1.64299C0.645121 1.37639 0.754271 1.12238 0.944019 0.935022C1.13377 0.747663 1.38914 0.641742 1.65579 0.639795ZM14.3391 11.3474H1.65579C1.38429 11.3474 1.12392 11.2396 0.931944 11.0476C0.739969 10.8556 0.632118 10.5952 0.632118 10.3237V9.83237L5.32821 6.71273L6.82022 7.70569C6.87285 7.7409 6.93475 7.7597 6.99808 7.7597C7.06141 7.7597 7.12331 7.7409 7.17594 7.70569L10.6692 5.37684L15.3551 8.5016V10.3442C15.3498 10.6108 15.2406 10.8648 15.0509 11.0522C14.8611 11.2395 14.6057 11.3455 14.3391 11.3474Z" fill="black"/>
<path d="M3.05516 4.64498C3.31633 4.64498 3.57165 4.56753 3.78881 4.42243C4.00597 4.27733 4.17523 4.07109 4.27517 3.82979C4.37512 3.5885 4.40127 3.32298 4.35032 3.06682C4.29937 2.81066 4.1736 2.57536 3.98892 2.39068C3.80424 2.206 3.56894 2.08023 3.31278 2.02928C3.05662 1.97833 2.79111 2.00448 2.54981 2.10443C2.30851 2.20437 2.10227 2.37363 1.95717 2.59079C1.81207 2.80795 1.73462 3.06327 1.73462 3.32444C1.7353 3.67446 1.87464 4.00996 2.12214 4.25746C2.36964 4.50496 2.70514 4.64431 3.05516 4.64498ZM3.05516 2.64114C3.18935 2.64266 3.3201 2.6838 3.43098 2.7594C3.54185 2.83501 3.62791 2.9417 3.67834 3.06606C3.72876 3.19043 3.7413 3.32693 3.71438 3.4584C3.68746 3.58987 3.62228 3.71045 3.52703 3.80499C3.43178 3.89953 3.31072 3.96381 3.17905 3.98975C3.04738 4.01569 2.91098 4.00213 2.78699 3.95078C2.66301 3.89943 2.55696 3.81258 2.48219 3.70114C2.40742 3.5897 2.36725 3.45864 2.36674 3.32444C2.36673 3.23428 2.38458 3.14501 2.41923 3.06177C2.45389 2.97853 2.50468 2.90298 2.56868 2.83946C2.63267 2.77594 2.7086 2.72572 2.7921 2.69168C2.87559 2.65764 2.96499 2.64047 3.05516 2.64114Z" fill="black"/>
</svg>
